<?xml version='1.0' encoding='UTF-8' standalone='no'?>
<svg sodipodi:docname="SensorlayoutP3.svg" version="1.1" width="480.93652" xmlns:rdf="http://www.w3.org/1999/02/22-rdf-syntax-ns#" xmlns:sodipodi="http://sodipodi.sourceforge.net/DTD/sodipodi-0.dtd" xmlns:dc="http://purl.org/dc/elements/1.1/" xmlns:cc="http://creativecommons.org/ns#" xmlns="http://www.w3.org/2000/svg" xmlns:svg="http://www.w3.org/2000/svg" id="svg2" height="549.10071">
  <defs id="defs4"/>
  <sodipodi:namedview showgrid="false" pagecolor="#ffffff" fit-margin-right="0" fit-margin-top="0" bordercolor="#666666" fit-margin-bottom="0" fit-margin-left="0" id="base" borderopacity="1.0"/>
  <g transform="translate(-186.6746,-207.09753)" id="layer1">
    <g id="silhouette">
      <path id="path3373" style="fill:#333333;stroke:#ffffff;stroke-width:2" d="m 447.22833,278.60455 c 5.5,-0.75 11.125,-2.125 16.75,-4 -0.25,2.625 -0.75,5.25 -1.25,8.125 -0.25,1.625 -0.5,3.25 -0.75,4.875 -5.375,3.875 -10.75,6.625 -16.25,8.375 -12,3.75 -24.125,2.125 -36.375,-4.875 -5.625,-3.25 -11.25,-7.5 -16.875,-13 0.5,-4.25 1.25,-8.625 2,-12.75 5.5,4 11.25,7.25 17.25,9.5 11,4.375 22.875,5.625 35.5,3.75 z"/>
      <path id="path3379" style="fill:#333333;stroke:#ffffff;stroke-width:2" d="m 388.47833,319.35455 c 5.5,3.875 11.25,6.875 17.25,9 11.75,4.125 24.25,4.75 37.375,1.875 4.125,-1 8.5,-2.25 12.75,-3.875 -1.125,7.75 -2.125,14.875 -3,21.5 -0.5,3.375 -1,6.875 -1.375,10.375 -24,14.37499 -46.25,12.12499 -66.75,-6.75 0,-0.75 0.125,-1.5 0.25,-2.25 1.25,-10.125 2.375,-20.125 3.5,-29.875 z"/>
      <path id="path3399" style="fill:#333333;stroke:#ffffff;stroke-width:2" d="m 258.72834,376.72954 c -6.125,4.5 -15.24999,7.75 -27.24999,9.75 -6.625,1.125 -14.25,1.875 -22.75,2.25 -2,-5.125 -3.875,-10.125 -5.875,-15.25 6.75,-1.25 13.375,-2.75 19.75,-4.625 9.25,-2.875 18.125,-6.37499 26.74999,-10.62499 3.375,-1.75 6.875,-3.625 10.125,-5.5 2.125,5.25 4.375,10.62499 6.625,15.99999 -1.625,3 -4.125,5.625 -7.375,8 z"/>
      <path id="path3405" style="fill:#333333;stroke:#ffffff;stroke-width:2" d="m 269.97834,400.22954 c 2.625,-1.5 5.125,-3.125 7.625,-4.875 2.25,5.25 4.75,10.5 7.125,15.75 0.125,0 0.25,0.25 0.5,0.625 -1.625,14.75 -10.75,23.5 -27.625,26.125 -7.5,1.125 -16.62499,1.125 -27.24999,-0.125 -1,-2.25 -2,-4.5 -3.125,-6.75 -1.625,-3.5 -3.25,-7 -4.875,-10.5 8,-2.125 15.625,-4.75 23,-7.75 8.74999,-3.625 16.87499,-7.75 24.62499,-12.5 z"/>
      <path id="path3417" style="fill:#333333;stroke:#ffffff;stroke-width:2" d="m 255.10334,501.85453 c -2.25,-7.125 -4.625,-14.37499 -7.24999,-21.49999 10.62499,-0.625 20.12499,-3 28.62499,-7.125 12.5,-6 22.625,-15.875 30.375,-29.25 5.875,5.875 8.125,2 7.25,-11.75 28.625,-0.75 49,-6.5 61.37499,-17 0.75,0.625 1.375,0.375 2.125,-0.625 0,-0.25 0.375,-4.125 1.125,-11.375 21.5,6.5 43.875,9 66.875,7.625 -0.125,9.625 1.625,14.125 5.5,13.5 4,-0.625 9.375,-7.625 16.125,-20.875 18.125,8.875 36.24999,14.875 54.24999,18.25 3.75,0.625 7.625,1.25 11.5,1.625 -8.125,21.125 -13.125,34.875 -15.125,41.125 -2.25,7 -5.5,16.5 -10,28.37499 -7.3581,21.20533 16.7866,65.97524 34.5,49.125 9.5,15.5 22,27.5 37.75,36 6.375,3.375 13.375,6.25 20.75,8.625 -7.5,11.375 -15.5,23.625 -24.125,36.87499 -17,26.25 -33.625,44.5 -49.75,54.875 -16,10.5 -26.875,19.75 -32.49999,28 -5.625,8.125 -8,23.25 -7.25,45.24999 l -187.24999,2.25 c -0.375,-10.125 -1.25,-20.12499 -2.375,-30.24999 -2.875,-22.875 -6.75,-45.375 -12,-67.625 -10.033,-54.05992 -20.54479,-118.00609 -30.5,-154.12499 z"/>
      <path id="path3453" style="fill:#333333;stroke:#ffffff;stroke-width:2" d="m 625.97831,525.10453 c 3.75,2 7.5,4 11.375,5.75 -2.625,4.25 -5.25,8.5 -8.125,12.75 -7.37499,-0.75 -14.12499,-1.875 -20.37499,-3.75 -20.625,-5.875 -34.875,-18.125 -43,-36.625 3,-5 5.875,-10 8.875,-15.12499 3.25,3.12499 6.625,5.99999 10,8.87499 12.75,10.75 26.5,20.125 41.24999,28.125 z"/>
      <path id="path3455" style="fill:#333333;stroke:#ffffff;stroke-width:2" d="m 307.10334,382.35454 c -1.25,-10.375 -2.375,-20.49999 -3.25,-30.37499 5.125,0.25 10.125,0.375 15.375,0.375 11.375,-0.125 23.5,-1 35.875,-2.5 3.75,-0.5 7.625,-1 11.5,-1.625 0.5,8.25 1.125,16.37499 1.75,24.49999 0,0.125 -0.125,0.25 -0.25,0.375 -11.375,19.5 -31.625,22.5 -61,9.25 z"/>
      <path id="path3463" style="fill:#333333;stroke:#ffffff;stroke-width:2" d="m 548.72832,378.97954 c -5.125,1.5 -10,2.625 -14.625,3.375 -23.5,4 -40.24999,-2 -50.24999,-18 1.875,-5.24999 3.75,-10.49999 5.5,-15.87499 5.25,2.125 10.49999,4 15.74999,5.625 0.375,0.125 0.875,0.25 1.375,0.375 11,3.25 22,5.5 33.125,6.875 4.625,0.5 9.25,0.75 14,1 -1.5,5.49999 -3.125,10.99999 -4.875,16.62499 z"/>
      <path id="path3473" style="fill:#333333;stroke:#ffffff;stroke-width:2" d="m 514.10332,320.72955 c -4.875,-3.375 -9,-8.125 -12.375,-14.5 1.25,-4 2.5,-8 3.75,-11.875 4.375,5.125 9.125,9.125 14,12 0.625,0.25 1.125,0.5 1.625,0.875 9.25,4.875 19.375,6 30.25,3.25 0.625,-0.25 1.25,-0.375 1.875,-0.5 4.25,-1.25 8.625,-3.125 13.125,-5.5 -0.625,4.25 -1.5,8.75 -2.375,13.5 -5.625,2.625 -10.875,4.625 -15.875,6.125 -12.625,3.375 -23.25,2.75 -31.75,-2 -0.75,-0.375 -1.5,-0.875 -2.25,-1.375 z"/>
      <path id="path3483" style="fill:#333333;stroke:#ffffff;stroke-width:2" d="m 300.97834,311.22955 c -0.375,-7.5 -0.625,-14.625 -0.75,-21.625 6.5,1 12.75,1.75 18.875,2.25 11.375,1 22.125,1.125 32.25,0.25 0.75,0 1.5,-0.125 2.25,-0.125 3.375,-0.375 6.75,-0.75 10,-1.25 0.25,6.5 0.5,12.875 0.75,19.375 -3.625,2.375 -7.5,4.25 -11.75,5.5 -9.875,3.25 -21.25,3.625 -34,0.875 -5.625,-1.125 -11.5,-3 -17.625,-5.25 z"/>
    </g>
    <path id="idd" style="fill:#000000;stroke:#ffffff;stroke-width:2" d="m 556.22832,273.35455 c -0.375,0 -0.75,0.125 -1,0.125 -10.625,2 -19,1.375 -25.375,-2 -0.125,0 -0.25,-0.125 -0.375,-0.125 -4.625,-2.5 -8,-6.5 -10.375,-11.875 6.5,-9.25 15.5,-13 27.375,-11.25 14.375,2.25 22,9.25 23,21.375 -4.625,1.625 -9.125,2.875 -13.25,3.75 z"/>
    <path id="idi" style="fill:#000000;stroke:#ffffff;stroke-width:2" d="m 553.22832,309.97955 c -0.625,0.125 -1.25,0.25 -1.875,0.5 l 4.875,-37.125 c 4.125,-0.875 8.625,-2.125 13.25,-3.75 0.125,0.875 0.25,1.875 0.125,2.875 0,8.25 -1,18.875 -3.25,32 -4.5,2.375 -8.875,4.25 -13.125,5.5 z"/>
    <path id="idm" style="fill:#000000;stroke:#ffffff;stroke-width:2" d="m 555.22832,273.47955 c 0.25,0 0.625,-0.125 1,-0.125 l -4.875,37.125 c -10.875,2.75 -21,1.625 -30.25,-3.25 -0.5,-0.375 -1,-0.625 -1.625,-0.875 l 10,-35 c 0.125,0 0.25,0.125 0.375,0.125 6.375,3.375 14.75,4 25.375,2 z"/>
    <path id="ido" style="fill:#000000;stroke:#ffffff;stroke-width:2" d="m 519.10332,259.47955 c 2.375,5.375 5.75,9.375 10.375,11.875 l -10,35 c -4.875,-2.875 -9.625,-6.875 -14,-12 2.75,-8.75 5.625,-17 8.375,-24.5 1.5,-4 3.25,-7.5 5.25,-10.375 z"/>
    <path id="imi" style="fill:#000000;stroke:#ffffff;stroke-width:2" d="m 548.10332,324.10455 c 5,-1.5 10.25,-3.5 15.875,-6.125 -1,5.25 -2.125,10.625 -3.5,16.5 -2,9.375 -4.375,18.625 -6.875,27.875 -4.75,-0.25 -9.375,-0.5 -14,-1 l 8.5,-37.25 z"/>
    <path id="imm" style="fill:#000000;stroke:#ffffff;stroke-width:2" d="m 516.35332,322.10455 c 8.5,4.75 19.125,5.375 31.75,2 l -8.5,37.25 c -11.125,-1.375 -22.125,-3.625 -33.125,-6.875 -0.5,-0.125 -1,-0.25 -1.375,-0.375 l 9,-33.375 c 0.75,0.5 1.5,1 2.25,1.375 z"/>
    <path id="imo" style="fill:#000000;stroke:#ffffff;stroke-width:2" d="m 501.72832,306.22955 c 3.375,6.375 7.5,11.125 12.375,14.5 l -9,33.375 c -5.25,-1.625 -10.49999,-3.5 -15.74999,-5.625 2.125,-6.5 4.125,-13.125 6,-19.875 2.125,-7.875 4.24999,-15.25 6.37499,-22.375 z"/>
    <path id="ip" style="fill:#000000;stroke:#ffffff;stroke-width:2" d="m 467.22833,403.47954 c 1.625,-3.25 3.25,-6.75 5,-10.625 4.25,-9.375 8.125,-18.875 11.625,-28.5 10,16 26.74999,22 50.24999,18 l -12.625,39.375 c -18,-3.375 -36.12499,-9.375 -54.24999,-18.25 z"/>
    <path id="ipi" style="fill:#000000;stroke:#ffffff;stroke-width:2" d="m 534.10332,382.35454 c 4.625,-0.75 9.5,-1.875 14.625,-3.375 -3.75,12 -7.875,23.875 -12.375,35.75 -1.25,3 -2.375,5.875 -3.375,8.625 -3.875,-0.375 -7.75,-1 -11.5,-1.625 l 12.625,-39.375 z"/>
    <path id="ldd" style="fill:#000000;stroke:#ffffff;stroke-width:2" d="m 209.85335,332.60455 c -6.375,0.5 -13.375,0.25 -21,-0.875 -1.125,-9.125 0.875,-16.5 6,-22.125 7.75,-8.625 17.375,-12 28.625,-9.875 6.625,1.125 13,6.25 18.875,15.25 -2.375,3.625 -5.375,6.625 -8.75,9.25 -6.25,4.625 -14.25,7.5 -23.75,8.375 z"/>
    <path id="ldi" style="fill:#000000;stroke:#ffffff;stroke-width:2" d="m 233.60335,324.22955 c 3.375,-2.625 6.375,-5.625 8.75,-9.25 4.125,6 7.99999,14 11.74999,23.75 1.75,4.625 3.625,9.25 5.375,14 -3.25,1.875 -6.75,3.75 -10.125,5.5 l -15.74999,-34 z"/>
    <path id="ldm" style="fill:#000000;stroke:#ffffff;stroke-width:2" d="m 249.35334,358.22955 c -8.62499,4.25 -17.49999,7.74999 -26.74999,10.62499 l -12.75,-36.24999 c 9.5,-0.875 17.5,-3.75 23.75,-8.375 l 15.74999,34 z"/>
    <path id="ldo" style="fill:#000000;stroke:#ffffff;stroke-width:2" d="m 188.85335,331.72955 c 7.625,1.125 14.625,1.375 21,0.875 l 12.75,36.24999 c -6.375,1.875 -13,3.375 -19.75,4.625 -0.375,-1.125 -0.875,-2.375 -1.25,-3.625 -2.75,-7.37499 -5.5,-14.62499 -8.375,-21.87499 -2.25,-5.875 -3.75,-11.25 -4.375,-16.25 z"/>
    <path id="lmi" style="fill:#000000;stroke:#ffffff;stroke-width:2" d="m 277.60334,395.35454 c -2.5,1.75 -5,3.375 -7.625,4.875 l -11.25,-23.5 c 3.25,-2.375 5.75,-5 7.375,-8 3.625,8.875 7.5,17.75 11.5,26.625 z"/>
    <path id="lmm" style="fill:#000000;stroke:#ffffff;stroke-width:2" d="m 232.72835,385.58668 c 12,-2 19.87499,-4.35714 25.99999,-8.85714 l 11.25,23.5 c -7.75,4.75 -15.875,8.875 -24.62499,12.5 z"/>
    <path id="lmo" style="fill:#000000;stroke:#ffffff;stroke-width:2" d="m 208.72835,388.72954 c 8.5,-0.375 17.55357,-1.83928 24.17857,-2.96428 l 12.44643,26.96428 c -7.375,3 -15,5.625 -23,7.75 -4.875,-10.625 -9.375,-21.125 -13.625,-31.75 z"/>
    <path id="lp" style="fill:#000000;stroke:#ffffff;stroke-width:2" d="m 306.85334,443.97954 c -7.75,13.375 -18.94642,24.14286 -31.44642,30.14286 l -14.76786,-36.80357 c 14.33161,-6.1448 20.73554,-13.30781 24.58928,-25.58929 1.25,2.25 6.375,10.125 15.25,23.75 2.375,3.75 4.5,6.625 6.375,8.5 z"/>
    <path id="lpo" style="fill:#000000;stroke:#ffffff;stroke-width:2" d="m 230.35335,437.72954 c 10.625,1.25 22.60714,1.07142 30.10714,-0.0536 l 14.76785,36.625 c -8.5,4.125 -16.75,5.42858 -27.37499,6.05358 -5.125,-14.375 -11,-28.625 -17.5,-42.625 z"/>
    <path id="mdd" style="fill:#000000;stroke:#ffffff;stroke-width:2" d="m 450.22833,242.35455 c -12.75,4.25 -24,3.25 -33.625,-2.875 -4,-2.49999 -7.625,-5.87499 -11,-10.12499 7,-15.375 16.875,-22.125 29.75,-20 13.5,2.25 22.5,8.625 27,19 1,2.125 1.75,4.625 2.25,7.375 -5,2.87499 -9.75,4.99999 -14.375,6.62499 z"/>
    <path id="mdi" style="fill:#000000;stroke:#ffffff;stroke-width:2" d="m 447.22833,278.60455 3,-36.25 c 4.625,-1.625 9.375,-3.75 14.375,-6.62499 1.875,9.24999 1.75,22.24999 -0.625,38.87499 -5.625,1.875 -11.25,3.25 -16.75,4 z"/>
    <path id="mdm" style="fill:#000000;stroke:#ffffff;stroke-width:2" d="m 416.60333,239.47955 c 9.625,6.125 20.875,7.125 33.625,2.875 l -3,36.25 c -12.625,1.875 -24.5,0.625 -35.5,-3.75 l 4.875,-35.375 z"/>
    <path id="mdo" style="fill:#000000;stroke:#ffffff;stroke-width:2" d="m 411.72833,274.85455 c -6,-2.25 -11.75,-5.5 -17.25,-9.5 2.375,-11.875 5.75,-23 10.125,-33.74999 0.25,-0.75 0.625,-1.5 1,-2.25 3.375,4.25 7,7.625 11,10.12499 l -4.875,35.375 z"/>
    <path id="mmi" style="fill:#000000;stroke:#ffffff;stroke-width:2" d="m 443.10333,330.22955 2.625,-34.25 c 5.5,-1.75 10.875,-4.5 16.25,-8.375 -2.375,14.25 -4.375,27.125 -6.125,38.75 -4.25,1.625 -8.625,2.875 -12.75,3.875 z"/>
    <path id="mmm" style="fill:#000000;stroke:#ffffff;stroke-width:2" d="m 405.72833,328.35455 3.625,-37.25 c 12.25,7 24.375,8.625 36.375,4.875 l -2.625,34.25 c -13.125,2.875 -25.625,2.25 -37.375,-1.875 z"/>
    <path id="mmo" style="fill:#000000;stroke:#ffffff;stroke-width:2" d="m 391.47833,286.97955 c 0.25,-3 0.625,-5.875 1,-8.875 5.625,5.5 11.25,9.75 16.875,13 l -3.625,37.25 c -6,-2.125 -11.75,-5.125 -17.25,-9 1.125,-11 2.125,-21.75 3,-32.375 z"/>
    <path id="mp" style="fill:#000000;stroke:#ffffff;stroke-width:2" d="m 446.47833,399.85454 c -0.5,4.25 -0.75,7.875 -0.875,11 -23,1.375 -45.375,-1.125 -66.875,-7.625 0.25,-1.625 0.375,-3.375 0.5,-5.25 1.125,-10.5 2.875,-25.875 5.5,-46.49999 20.5,18.87499 42.75,21.12499 66.75,6.75 -1.875,13.99999 -3.5,27.87499 -5,41.62499 z"/>
    <path id="pi" style="fill:#000000;stroke:#ffffff;stroke-width:2" d="m 490.68686,513.42076 c 8.58422,-2.14887 16.75119,-2.19571 16.75119,-2.19571 1.66611,7.16199 10.82853,22.32499 13.7896,27.70665 -16.51963,-4.46487 -20.08467,-5.0007 -29.01307,-7.76483 -11.75135,-3.63808 -14.29965,-14.54894 -1.52772,-17.74611 z"/>
    <path id="pcid" style="fill:#000000;stroke:#ffffff;stroke-width:2" d="m 426.65896,585.27646 c -14.38315,-2.5097 -27.45234,-6.70187 -39.57384,-13.28615 -9.39366,-5.64785 -17.15445,-13.34772 -24.40738,-24.21581 -1.6305,-2.44321 -3.64891,-5.70837 -3.57463,-5.78264 0.19419,-0.1942 7.81177,-4.16415 10.96586,-5.71494 16.58678,-8.15529 37.23466,-14.129 60.42928,-17.48303 9.04449,-1.30786 15.42669,-1.89304 20.71175,-1.89902 5.20976,-0.006 8.29863,0.39647 10.50271,1.36816 1.89742,0.83649 2.53261,1.62484 2.53436,3.14543 10e-4,1.2812 -0.45715,2.52485 -1.65829,4.49675 -1.55969,2.56051 -3.03237,4.25894 -8.60906,9.92874 -7.56367,7.68996 -11.18382,12.15221 -15.21958,18.7599 -6.00636,8.00754 -10.53544,25.50583 -12.10118,30.68261 z"/>
    <path id="pcim" style="fill:#000000;stroke:#ffffff;stroke-width:2" d="m 364.82273,650.16449 c -4.18338,-29.35696 3.72704,-60.06064 23.65084,-77.70472 12.1064,6.69694 26.20765,10.1253 38.27447,12.6302 -1.36312,26.96881 0.10833,50.38379 7.63508,72.63378 -20.88721,2.60264 -52.41989,0.72493 -69.56039,-7.55926 z"/>
    <path id="pcip" style="fill:#000000;stroke:#ffffff;stroke-width:2;stroke-linejoin:miter" d="m 380.98949,715.33145 c -6.75861,-22.2942 -14.71437,-44.77711 -15.66981,-64.41295 21.88892,8.36051 47.6737,8.43156 69.06252,6.77644 3.45537,7.56231 8.75404,17.14543 12.79114,22.9613 6.47151,9.27239 7.31351,16.76832 2.42418,21.58115 -22.956,11.66371 -55.60104,12.57893 -68.60803,13.09403 z"/>
    <path id="pcmd" style="fill:#000000;stroke:#ffffff;stroke-width:2" d="m 310.70363,572.4516 c 15.40783,-12.36754 33.78202,-21.45404 48.78558,-30.70338 7.25232,12.29674 17.32274,23.56021 28.53362,30.71807 -23.64793,24.58238 -24.51561,48.80129 -23.29587,77.59219 -23.61888,-20.52745 -35.17359,-39.8867 -54.02333,-77.60688 z"/>
    <path id="pcmp" style="fill:#000000;stroke:#ffffff;stroke-width:2" d="m 319.25408,716.02281 c -5.27659,-47.60108 -12.43992,-93.51195 -20.1844,-136.04985 3.79762,-2.5685 8.15545,-5.34416 11.71716,-7.52679 11.9996,25.80989 30.93732,59.1838 54.48369,77.58507 2.95159,27.57349 9.32952,44.43987 15.3655,65.36817 -20.26862,0.70006 -42.40658,1.15312 -61.38195,0.6234 z"/>
    <path id="pco" style="fill:#000000;stroke:#ffffff;stroke-width:2" d="m 296.7374,715.79233 c -6.26416,-38.54107 -14.94875,-81.17049 -22.16906,-120.46745 6.20809,-4.76391 17.51012,-11.41345 24.61638,-15.50406 9.17201,46.36088 16.14943,92.76036 20.2045,136.08567 -6.31135,0.0714 -18.59461,-0.0903 -22.65182,-0.11416 z"/>
    <path id="pdi" style="fill:#000000;stroke:#ffffff;stroke-width:2" d="m 451.47958,491.44715 c -0.45662,-15.18255 -1.7878,-32.32111 -1.90848,-46.95047 20.33833,1.06384 42.15832,5.42822 56.82192,9.74451 0.39366,0.21989 -14.17041,42.03551 -14.65991,42.09095 -13.01784,-2.01266 -28.2064,-3.36713 -40.25353,-4.88499 z"/>
    <path id="pdii" style="fill:#000000;stroke:#ffffff;stroke-width:2" d="m 491.70683,496.40506 c 4.75291,-13.79694 9.71253,-28.21004 14.59064,-41.96303 3.23934,0.84263 9.47599,3.37302 12.63202,4.49131 -4.39457,13.57736 -8.90502,27.80071 -13.11112,39.68441 -2.58428,-0.19685 -11.82713,-1.54044 -14.11154,-2.21269 z"/>
    <path id="pdl" style="fill:#000000;stroke:#ffffff;stroke-width:2" d="m 292.89228,554.92332 c -3.83859,-19.03978 -7.05372,-39.25911 -12.99942,-56.85119 14.30365,-8.05421 29.76408,-16.16701 44.67224,-23.45661 6.47208,16.3189 16.01973,33.29396 22.37122,47.48161 -16.79301,10.29221 -38.30229,23.15588 -54.04404,32.82619 z"/>
    <path id="pdlo" style="fill:#000000;stroke:#ffffff;stroke-width:2" d="m 269.51179,568.2621 c -3.20663,-19.50443 -8.39663,-39.05378 -11.63393,-56.8585 5.61155,-4.00343 16.51683,-10.33367 22.5338,-13.70055 4.40403,16.95578 9.97464,39.0973 13.06406,56.87074 -6.773,3.76817 -17.68741,10.15928 -23.96393,13.68831 z"/>
    <path id="pdm" style="fill:#000000;stroke:#ffffff;stroke-width:2" d="m 383.95871,450.98289 c 22.14261,-3.80601 47.26403,-5.83125 66.13579,-6.31056 0.95556,16.52389 0.85814,32.86682 1.83371,47.00253 -6.54848,-0.31176 -14.82156,0.47091 -21.297,1.15245 -11.30806,1.42773 -21.36414,3.27899 -31.09656,6.00468 -5.29168,-16.87335 -13.2057,-32.89665 -15.57594,-47.8491 z"/>
    <path id="pdr" style="fill:#000000;stroke:#ffffff;stroke-width:2" d="m 324.5651,474.61553 c 17.16968,-8.17517 40.04307,-17.44305 59.25981,-23.57606 4.25966,16.94064 9.89324,32.67075 15.48918,47.67208 -19.24524,7.28183 -35.72081,12.67217 -52.39936,23.29082 -6.33081,-11.21745 -17.26016,-34.94794 -22.34963,-47.38684 z"/>
    <path id="ptid" style="fill:#000000;stroke:#ffffff;stroke-width:2" d="m 526.81346,635.74596 c 15.17321,-8.25738 31.9767,-24.11718 42.13904,-38.86999 4.06334,3.81722 10.16444,11.46829 14.7617,15.8821 -12.48054,16.82476 -20.27332,35.21747 -35.90955,48.08566 -5.68478,-6.45976 -15.88752,-18.76886 -20.99119,-25.09777 z"/>
    <path id="ptip" style="fill:#000000;stroke:#ffffff;stroke-width:2" d="m 461.18823,656.46271 c 23.07966,-4.03154 43.40246,-11.86263 65.62523,-20.71675 5.79488,6.6641 15.9263,18.97554 20.99119,25.09777 -6.14992,7.63521 -17.53641,14.94791 -23.37305,19.20061 -10.68231,7.20715 -18.78592,15.72777 -27.44206,22.9787 -13.74129,-11.28879 -28.6718,-33.19181 -35.80131,-46.56033 z"/>
    <path id="ptmd" style="fill:#000000;stroke:#ffffff;stroke-width:2" d="m 500.75179,586.68528 c 21.90893,-2.4056 29.41028,-7.01584 43.68902,-13.65792 8.01672,8.57678 16.70568,16.43212 24.58121,24.26109 -12.67643,15.68412 -24.33077,30.27829 -42.20856,38.45751 -11.57744,-15.15629 -21.24193,-34.67416 -26.06167,-49.06068 z"/>
    <path id="ptmp" style="fill:#000000;stroke:#ffffff;stroke-width:2" d="m 451.02911,587.76557 c 18.99764,-0.22344 36.55799,-0.3849 49.72268,-1.08029 6.29236,17.61013 15.65012,35.85932 26.06167,49.06068 -21.351,8.76595 -46.24049,17.34421 -65.80728,20.5823 -8.77948,-16.87701 -11.37821,-57.32743 -9.97707,-68.56269 z"/>
    <path id="ptod" style="fill:#000000;stroke:#ffffff;stroke-width:2" d="m 500.75179,586.68528 c -1.67085,-11.79768 -4.28127,-27.2699 -2.59022,-37.63913 11.99172,1.00723 22.53306,1.0701 33.21804,3.16867 3.3429,7.89285 8.55253,15.39046 13.0612,20.81254 -14.82328,7.73874 -29.52624,13.24881 -43.68902,13.65792 z"/>
    <path id="ptop" style="fill:#000000;stroke:#ffffff;stroke-width:2" d="m 450.79846,587.79796 c -0.0336,-7.89233 12.18837,-30.3918 18.11924,-34.17238 10.84855,-4.58709 18.50694,-4.30788 29.24387,-4.57943 -1.22566,14.23772 -0.0885,25.72916 2.59022,37.63913 -16.80113,0.681 -34.52739,2.15368 -49.95333,1.11268 z"/>
    <path id="rdd" style="fill:#000000;stroke:#ffffff;stroke-width:2" d="m 348.60334,258.85455 c -8.625,2.25 -17.375,1.25 -26.375,-2.875 -5.125,-2.375 -10.5,-6 -16,-10.625 5.125,-12.24999 13.125,-19.12499 24.25,-20.49999 16.375,-2.125 26.625,7.375 30.625,28.37499 -3.125,2.125 -6.375,3.625 -9.625,4.75 -1,0.375 -2,0.625 -2.875,0.875 z"/>
    <path id="rdi" style="fill:#000000;stroke:#ffffff;stroke-width:2" d="m 348.60334,258.85455 c 0.875,-0.25 1.875,-0.5 2.875,-0.875 3.25,-1.125 6.5,-2.625 9.625,-4.75 1.125,5.75 1.75,12.25 2,19.75 0.125,5.875 0.25,11.875 0.5,17.75 -3.25,0.5 -6.625,0.875 -10,1.25 -0.75,0 -1.5,0.125 -2.25,0.125 l -2.75,-33.25 z"/>
    <path id="rdm" style="fill:#000000;stroke:#ffffff;stroke-width:2" d="m 322.22834,255.97955 c 9,4.125 17.75,5.125 26.375,2.875 l 2.75,33.25 c -10.125,0.875 -20.875,0.75 -32.25,-0.25 l 3.125,-35.875 z"/>
    <path id="rdo" style="fill:#000000;stroke:#ffffff;stroke-width:2" d="m 306.22834,245.35455 c 5.5,4.625 10.875,8.25 16,10.625 l -3.125,35.875 c -6.125,-0.5 -12.375,-1.25 -18.875,-2.25 -0.25,-18.875 1.75,-33.5 6,-44.25 z"/>
    <path id="rmi" style="fill:#000000;stroke:#ffffff;stroke-width:2" d="m 355.10334,349.85455 -2.5,-34.25 c 4.25,-1.25 8.125,-3.125 11.75,-5.5 0.625,12.875 1.375,25.5 2.25,38.125 -3.875,0.625 -7.75,1.125 -11.5,1.625 z"/>
    <path id="rmm" style="fill:#000000;stroke:#ffffff;stroke-width:2" d="m 318.60334,316.47955 c 12.75,2.75 24.125,2.375 34,-0.875 l 2.5,34.25 c -12.375,1.5 -24.5,2.375 -35.875,2.5 l -0.625,-35.875 z"/>
    <path id="rmo" style="fill:#000000;stroke:#ffffff;stroke-width:2" d="m 318.60334,316.47955 0.625,35.875 c -5.25,0 -10.25,-0.125 -15.375,-0.375 -1.375,-14.25 -2.375,-27.875 -2.875,-40.75 6.125,2.25 12,4.125 17.625,5.25 z"/>
    <path id="rp" style="fill:#000000;stroke:#ffffff;stroke-width:2" d="m 314.10334,432.22954 c -2.75,-17.25 -5.125,-33.875 -7,-49.875 29.375,13.25 49.625,10.25 61,-9.25 l 0.375,0.25 c 2.125,25.625 4.5,39.5 6.99999,41.875 -12.37499,10.5 -32.74999,16.25 -61.37499,17 z"/>
    <path id="tdd" style="fill:#000000;stroke:#ffffff;stroke-width:2" d="m 627.22831,433.60454 c 7.625,-1.125 16.375,2 25.875,9.125 9.625,7.25 13.75,17 12.375,29.25 -3.75,-0.875 -7.375,-1.875 -11,-3.125 -13.125,-4.5 -25.5,-11.375 -37.12499,-20.5 -2.875,-2.25 -5.625,-4.625 -8.375,-7.125 4.375,-4.125 10.5,-6.625 18.24999,-7.625 z"/>
    <path id="tdi" style="fill:#000000;stroke:#ffffff;stroke-width:2" d="m 654.47831,468.85454 c 3.625,1.25 7.25,2.25 11,3.125 -2.625,11 -6.375,21.12499 -11.5,30.24999 -5,9.25 -10.5,18.75 -16.625,28.625 -3.875,-1.75 -7.625,-3.75 -11.375,-5.75 l 28.5,-56.24999 z"/>
    <path id="tdm" style="fill:#000000;stroke:#ffffff;stroke-width:2" d="m 617.35332,448.35454 c 11.62499,9.125 23.99999,16 37.12499,20.5 l -28.5,56.24999 c -14.74999,-8 -28.49999,-17.375 -41.24999,-28.125 l 32.625,-48.62499 z"/>
    <path id="tdo" style="fill:#000000;stroke:#ffffff;stroke-width:2" d="m 585.60332,470.10454 c 7.375,-12.25 15.125,-21.875 23.375,-28.875 2.75,2.5 5.5,4.875 8.375,7.125 l -32.625,48.62499 c -3.375,-2.875 -6.75,-5.75 -10,-8.87499 3.625,-5.875 7.25,-12 10.875,-18 z"/>
    <path id="tpi" style="fill:#000000;stroke:#ffffff;stroke-width:2" d="m 580.10332,577.97953 28.75,-38.125 c 6.25,1.875 13,3 20.37499,3.75 -2.5,4 -5.24999,8 -7.87499,12 -6.375,9.5 -13.125,19.75 -20.5,31 -7.375,-2.375 -14.375,-5.25 -20.75,-8.625 z"/>
    <path id="tpm" style="fill:#000000;stroke:#ffffff;stroke-width:2" d="m 552.79183,556.11838 c 6.50572,-12.03145 15.90249,-25.65947 22.8212,-36.36112 8.67321,8.17361 16.02,14.92526 33.29057,20.15893 -9.77406,12.57599 -19.40117,24.8985 -28.46557,37.80121 -10.1462,-5.27415 -21.23891,-14.33553 -27.6462,-21.59902 z"/>
    <path id="tpo" style="fill:#000000;stroke:#ffffff;stroke-width:2" d="m 542.75806,541.92204 c 9.3053,-11.13904 15.83943,-28.57099 22.92689,-37.95015 2.93338,5.04228 6.63018,11.40005 9.92808,15.78537 -7.43075,12.1985 -16.85785,25.03389 -22.82119,36.36112 -2.97246,-3.97664 -7.85781,-9.78555 -10.03378,-14.19634 z"/>
  </g>
</svg>
