<?xml version="1.0" encoding="UTF-8" standalone="no"?>
<svg
   xmlns:dc="http://purl.org/dc/elements/1.1/"
   xmlns:cc="http://creativecommons.org/ns#"
   xmlns:rdf="http://www.w3.org/1999/02/22-rdf-syntax-ns#"
   xmlns:svg="http://www.w3.org/2000/svg"
   xmlns="http://www.w3.org/2000/svg"
   xmlns:sodipodi="http://sodipodi.sourceforge.net/DTD/sodipodi-0.dtd"
   xmlns:inkscape="http://www.inkscape.org/namespaces/inkscape"
   sodipodi:docname="SensorlayoutL3.svg"
   version="1.1"
   width="480.93652"
   id="svg2"
   height="549.10071"
   inkscape:version="0.48.4 r9939">
  <metadata
     id="metadata77">
    <rdf:RDF>
      <cc:Work
         rdf:about="">
        <dc:format>image/svg+xml</dc:format>
        <dc:type
           rdf:resource="http://purl.org/dc/dcmitype/StillImage" />
        <dc:title />
      </cc:Work>
    </rdf:RDF>
  </metadata>
  <defs
     id="defs4" />
  <sodipodi:namedview
     showgrid="false"
     pagecolor="#ffffff"
     fit-margin-right="0"
     fit-margin-top="0"
     bordercolor="#666666"
     fit-margin-bottom="0"
     fit-margin-left="0"
     id="base"
     borderopacity="1.0"
     inkscape:zoom="1.4248065"
     inkscape:cx="87.948643"
     inkscape:cy="291.64312"
     inkscape:window-width="1210"
     inkscape:window-height="983"
     inkscape:window-x="438"
     inkscape:window-y="114"
     inkscape:window-maximized="0"
     inkscape:current-layer="layer1" />
  <g
     transform="translate(-186.6746,-207.09753)"
     id="layer1">
    <g
       id="silhouette">
      <path
         id="path3373"
         style="fill:#333333;stroke:#ffffff;stroke-width:2"
         d="m 447.22833,278.60455 c 5.5,-0.75 11.125,-2.125 16.75,-4 -0.25,2.625 -0.75,5.25 -1.25,8.125 -0.25,1.625 -0.5,3.25 -0.75,4.875 -5.375,3.875 -10.75,6.625 -16.25,8.375 -12,3.75 -24.125,2.125 -36.375,-4.875 -5.625,-3.25 -11.25,-7.5 -16.875,-13 0.5,-4.25 1.25,-8.625 2,-12.75 5.5,4 11.25,7.25 17.25,9.5 11,4.375 22.875,5.625 35.5,3.75 z" />
      <path
         id="path3379"
         style="fill:#333333;stroke:#ffffff;stroke-width:2"
         d="m 388.47833,319.35455 c 5.5,3.875 11.25,6.875 17.25,9 11.75,4.125 24.25,4.75 37.375,1.875 4.125,-1 8.5,-2.25 12.75,-3.875 -1.125,7.75 -2.125,14.875 -3,21.5 -0.5,3.375 -1,6.875 -1.375,10.375 -24,14.37499 -46.25,12.12499 -66.75,-6.75 0,-0.75 0.125,-1.5 0.25,-2.25 1.25,-10.125 2.375,-20.125 3.5,-29.875 z" />
      <path
         id="path3399"
         style="fill:#333333;stroke:#ffffff;stroke-width:2"
         d="m 258.72834,376.72954 c -6.125,4.5 -15.24999,7.75 -27.24999,9.75 -6.625,1.125 -14.25,1.875 -22.75,2.25 -2,-5.125 -3.875,-10.125 -5.875,-15.25 6.75,-1.25 13.375,-2.75 19.75,-4.625 9.25,-2.875 18.125,-6.37499 26.74999,-10.62499 3.375,-1.75 6.875,-3.625 10.125,-5.5 2.125,5.25 4.375,10.62499 6.625,15.99999 -1.625,3 -4.125,5.625 -7.375,8 z" />
      <path
         id="path3405"
         style="fill:#333333;stroke:#ffffff;stroke-width:2"
         d="m 269.97834,400.22954 c 2.625,-1.5 5.125,-3.125 7.625,-4.875 2.25,5.25 4.75,10.5 7.125,15.75 0.125,0 0.25,0.25 0.5,0.625 -1.625,14.75 -10.75,23.5 -27.625,26.125 -7.5,1.125 -16.62499,1.125 -27.24999,-0.125 -1,-2.25 -2,-4.5 -3.125,-6.75 -1.625,-3.5 -3.25,-7 -4.875,-10.5 8,-2.125 15.625,-4.75 23,-7.75 8.74999,-3.625 16.87499,-7.75 24.62499,-12.5 z" />
      <path
         id="path3417"
         style="fill:#333333;stroke:#ffffff;stroke-width:2"
         d="m 255.10334,501.85453 c -2.25,-7.125 -4.625,-14.37499 -7.24999,-21.49999 10.62499,-0.625 20.12499,-3 28.62499,-7.125 12.5,-6 22.625,-15.875 30.375,-29.25 5.875,5.875 8.125,2 7.25,-11.75 28.625,-0.75 49,-6.5 61.37499,-17 0.75,0.625 1.375,0.375 2.125,-0.625 0,-0.25 0.375,-4.125 1.125,-11.375 21.5,6.5 43.875,9 66.875,7.625 -0.125,9.625 1.625,14.125 5.5,13.5 4,-0.625 9.375,-7.625 16.125,-20.875 18.125,8.875 36.24999,14.875 54.24999,18.25 3.75,0.625 7.625,1.25 11.5,1.625 -8.125,21.125 -13.125,34.875 -15.125,41.125 -2.25,7 -5.5,16.5 -10,28.37499 -7.3581,21.20533 16.7866,65.97524 34.5,49.125 9.5,15.5 22,27.5 37.75,36 6.375,3.375 13.375,6.25 20.75,8.625 -7.5,11.375 -15.5,23.625 -24.125,36.87499 -17,26.25 -33.625,44.5 -49.75,54.875 -16,10.5 -26.875,19.75 -32.49999,28 -5.625,8.125 -8,23.25 -7.25,45.24999 l -187.24999,2.25 c -0.375,-10.125 -1.25,-20.12499 -2.375,-30.24999 -2.875,-22.875 -6.75,-45.375 -12,-67.625 -10.033,-54.05992 -20.54479,-118.00609 -30.5,-154.12499 z" />
      <path
         id="path3453"
         style="fill:#333333;stroke:#ffffff;stroke-width:2"
         d="m 625.97831,525.10453 c 3.75,2 7.5,4 11.375,5.75 -2.625,4.25 -5.25,8.5 -8.125,12.75 -7.37499,-0.75 -14.12499,-1.875 -20.37499,-3.75 -20.625,-5.875 -34.875,-18.125 -43,-36.625 3,-5 5.875,-10 8.875,-15.12499 3.25,3.12499 6.625,5.99999 10,8.87499 12.75,10.75 26.5,20.125 41.24999,28.125 z" />
      <path
         id="path3455"
         style="fill:#333333;stroke:#ffffff;stroke-width:2"
         d="m 307.10334,382.35454 c -1.25,-10.375 -2.375,-20.49999 -3.25,-30.37499 5.125,0.25 10.125,0.375 15.375,0.375 11.375,-0.125 23.5,-1 35.875,-2.5 3.75,-0.5 7.625,-1 11.5,-1.625 0.5,8.25 1.125,16.37499 1.75,24.49999 0,0.125 -0.125,0.25 -0.25,0.375 -11.375,19.5 -31.625,22.5 -61,9.25 z" />
      <path
         id="path3463"
         style="fill:#333333;stroke:#ffffff;stroke-width:2"
         d="m 548.72832,378.97954 c -5.125,1.5 -10,2.625 -14.625,3.375 -23.5,4 -40.24999,-2 -50.24999,-18 1.875,-5.24999 3.75,-10.49999 5.5,-15.87499 5.25,2.125 10.49999,4 15.74999,5.625 0.375,0.125 0.875,0.25 1.375,0.375 11,3.25 22,5.5 33.125,6.875 4.625,0.5 9.25,0.75 14,1 -1.5,5.49999 -3.125,10.99999 -4.875,16.62499 z" />
      <path
         id="path3473"
         style="fill:#333333;stroke:#ffffff;stroke-width:2"
         d="m 514.10332,320.72955 c -4.875,-3.375 -9,-8.125 -12.375,-14.5 1.25,-4 2.5,-8 3.75,-11.875 4.375,5.125 9.125,9.125 14,12 0.625,0.25 1.125,0.5 1.625,0.875 9.25,4.875 19.375,6 30.25,3.25 0.625,-0.25 1.25,-0.375 1.875,-0.5 4.25,-1.25 8.625,-3.125 13.125,-5.5 -0.625,4.25 -1.5,8.75 -2.375,13.5 -5.625,2.625 -10.875,4.625 -15.875,6.125 -12.625,3.375 -23.25,2.75 -31.75,-2 -0.75,-0.375 -1.5,-0.875 -2.25,-1.375 z" />
      <path
         id="path3483"
         style="fill:#333333;stroke:#ffffff;stroke-width:2"
         d="m 300.97834,311.22955 c -0.375,-7.5 -0.625,-14.625 -0.75,-21.625 6.5,1 12.75,1.75 18.875,2.25 11.375,1 22.125,1.125 32.25,0.25 0.75,0 1.5,-0.125 2.25,-0.125 3.375,-0.375 6.75,-0.75 10,-1.25 0.25,6.5 0.5,12.875 0.75,19.375 -3.625,2.375 -7.5,4.25 -11.75,5.5 -9.875,3.25 -21.25,3.625 -34,0.875 -5.625,-1.125 -11.5,-3 -17.625,-5.25 z" />
    </g>
    <path
       id="idd"
       style="fill:#000000;stroke:#ffffff;stroke-width:2"
       d="m 556.22832,273.35455 c -0.375,0 -0.75,0.125 -1,0.125 -10.625,2 -19,1.375 -25.375,-2 -0.125,0 -0.25,-0.125 -0.375,-0.125 -4.625,-2.5 -8,-6.5 -10.375,-11.875 6.5,-9.25 15.5,-13 27.375,-11.25 14.375,2.25 22,9.25 23,21.375 -4.625,1.625 -9.125,2.875 -13.25,3.75 z" />
    <path
       id="idi"
       style="fill:#000000;stroke:#ffffff;stroke-width:2"
       d="m 553.22832,309.97955 c -0.625,0.125 -1.25,0.25 -1.875,0.5 l 4.875,-37.125 c 4.125,-0.875 8.625,-2.125 13.25,-3.75 0.125,0.875 0.25,1.875 0.125,2.875 0,8.25 -1,18.875 -3.25,32 -4.5,2.375 -8.875,4.25 -13.125,5.5 z" />
    <path
       id="idm"
       style="fill:#000000;stroke:#ffffff;stroke-width:2"
       d="m 555.22832,273.47955 c 0.25,0 0.625,-0.125 1,-0.125 l -4.875,37.125 c -10.875,2.75 -21,1.625 -30.25,-3.25 -0.5,-0.375 -1,-0.625 -1.625,-0.875 l 10,-35 c 0.125,0 0.25,0.125 0.375,0.125 6.375,3.375 14.75,4 25.375,2 z" />
    <path
       id="ido"
       style="fill:#000000;stroke:#ffffff;stroke-width:2"
       d="m 519.10332,259.47955 c 2.375,5.375 5.75,9.375 10.375,11.875 l -10,35 c -4.875,-2.875 -9.625,-6.875 -14,-12 2.75,-8.75 5.625,-17 8.375,-24.5 1.5,-4 3.25,-7.5 5.25,-10.375 z" />
    <path
       id="imi"
       style="fill:#000000;stroke:#ffffff;stroke-width:2"
       d="m 548.10332,324.10455 c 5,-1.5 10.25,-3.5 15.875,-6.125 -1,5.25 -2.125,10.625 -3.5,16.5 -2,9.375 -4.375,18.625 -6.875,27.875 -4.75,-0.25 -9.375,-0.5 -14,-1 l 8.5,-37.25 z" />
    <path
       id="imm"
       style="fill:#000000;stroke:#ffffff;stroke-width:2"
       d="m 516.35332,322.10455 c 8.5,4.75 19.125,5.375 31.75,2 l -8.5,37.25 c -11.125,-1.375 -22.125,-3.625 -33.125,-6.875 -0.5,-0.125 -1,-0.25 -1.375,-0.375 l 9,-33.375 c 0.75,0.5 1.5,1 2.25,1.375 z" />
    <path
       id="imo"
       style="fill:#000000;stroke:#ffffff;stroke-width:2"
       d="m 501.72832,306.22955 c 3.375,6.375 7.5,11.125 12.375,14.5 l -9,33.375 c -5.25,-1.625 -10.49999,-3.5 -15.74999,-5.625 2.125,-6.5 4.125,-13.125 6,-19.875 2.125,-7.875 4.24999,-15.25 6.37499,-22.375 z" />
    <path
       id="ip"
       style="fill:#000000;stroke:#ffffff;stroke-width:2"
       d="m 467.22833,403.47954 c 1.625,-3.25 3.25,-6.75 5,-10.625 4.25,-9.375 8.125,-18.875 11.625,-28.5 10,16 26.74999,22 50.24999,18 l -12.625,39.375 c -18,-3.375 -36.12499,-9.375 -54.24999,-18.25 z" />
    <path
       id="ipi"
       style="fill:#000000;stroke:#ffffff;stroke-width:2"
       d="m 534.10332,382.35454 c 4.625,-0.75 9.5,-1.875 14.625,-3.375 -3.75,12 -7.875,23.875 -12.375,35.75 -1.25,3 -2.375,5.875 -3.375,8.625 -3.875,-0.375 -7.75,-1 -11.5,-1.625 l 12.625,-39.375 z" />
    <path
       id="ldd"
       style="fill:#000000;stroke:#ffffff;stroke-width:2"
       d="m 209.85335,332.60455 c -6.375,0.5 -13.375,0.25 -21,-0.875 -1.125,-9.125 0.875,-16.5 6,-22.125 7.75,-8.625 17.375,-12 28.625,-9.875 6.625,1.125 13,6.25 18.875,15.25 -2.375,3.625 -5.375,6.625 -8.75,9.25 -6.25,4.625 -14.25,7.5 -23.75,8.375 z" />
    <path
       id="ldi"
       style="fill:#000000;stroke:#ffffff;stroke-width:2"
       d="m 233.60335,324.22955 c 3.375,-2.625 6.375,-5.625 8.75,-9.25 4.125,6 7.99999,14 11.74999,23.75 1.75,4.625 3.625,9.25 5.375,14 -3.25,1.875 -6.75,3.75 -10.125,5.5 l -15.74999,-34 z" />
    <path
       id="ldm"
       style="fill:#000000;stroke:#ffffff;stroke-width:2"
       d="m 249.35334,358.22955 c -8.62499,4.25 -17.49999,7.74999 -26.74999,10.62499 l -12.75,-36.24999 c 9.5,-0.875 17.5,-3.75 23.75,-8.375 l 15.74999,34 z" />
    <path
       id="ldo"
       style="fill:#000000;stroke:#ffffff;stroke-width:2"
       d="m 188.85335,331.72955 c 7.625,1.125 14.625,1.375 21,0.875 l 12.75,36.24999 c -6.375,1.875 -13,3.375 -19.75,4.625 -0.375,-1.125 -0.875,-2.375 -1.25,-3.625 -2.75,-7.37499 -5.5,-14.62499 -8.375,-21.87499 -2.25,-5.875 -3.75,-11.25 -4.375,-16.25 z" />
    <path
       id="lmi"
       style="fill:#000000;stroke:#ffffff;stroke-width:2"
       d="m 277.60334,395.35454 c -2.5,1.75 -5,3.375 -7.625,4.875 l -11.25,-23.5 c 3.25,-2.375 5.75,-5 7.375,-8 3.625,8.875 7.5,17.75 11.5,26.625 z" />
    <path
       id="lmm"
       style="fill:#000000;stroke:#ffffff;stroke-width:2"
       d="m 232.72835,385.58668 c 12,-2 19.87499,-4.35714 25.99999,-8.85714 l 11.25,23.5 c -7.75,4.75 -15.875,8.875 -24.62499,12.5 z" />
    <path
       id="lmo"
       style="fill:#000000;stroke:#ffffff;stroke-width:2"
       d="m 208.72835,388.72954 c 8.5,-0.375 17.55357,-1.83928 24.17857,-2.96428 l 12.44643,26.96428 c -7.375,3 -15,5.625 -23,7.75 -4.875,-10.625 -9.375,-21.125 -13.625,-31.75 z" />
    <path
       id="lp"
       style="fill:#000000;stroke:#ffffff;stroke-width:2"
       d="m 306.85334,443.97954 c -7.75,13.375 -18.94642,24.14286 -31.44642,30.14286 l -14.76786,-36.80357 c 14.33161,-6.1448 20.73554,-13.30781 24.58928,-25.58929 1.25,2.25 6.375,10.125 15.25,23.75 2.375,3.75 4.5,6.625 6.375,8.5 z" />
    <path
       id="lpo"
       style="fill:#000000;stroke:#ffffff;stroke-width:2"
       d="m 230.35335,437.72954 c 10.625,1.25 22.60714,1.07142 30.10714,-0.0536 l 14.76785,36.625 c -8.5,4.125 -16.75,5.42858 -27.37499,6.05358 -5.125,-14.375 -11,-28.625 -17.5,-42.625 z" />
    <path
       id="mdd"
       style="fill:#000000;stroke:#ffffff;stroke-width:2"
       d="m 450.22833,242.35455 c -12.75,4.25 -24,3.25 -33.625,-2.875 -4,-2.49999 -7.625,-5.87499 -11,-10.12499 7,-15.375 16.875,-22.125 29.75,-20 13.5,2.25 22.5,8.625 27,19 1,2.125 1.75,4.625 2.25,7.375 -5,2.87499 -9.75,4.99999 -14.375,6.62499 z" />
    <path
       id="mdi"
       style="fill:#000000;stroke:#ffffff;stroke-width:2"
       d="m 447.22833,278.60455 3,-36.25 c 4.625,-1.625 9.375,-3.75 14.375,-6.62499 1.875,9.24999 1.75,22.24999 -0.625,38.87499 -5.625,1.875 -11.25,3.25 -16.75,4 z" />
    <path
       id="mdm"
       style="fill:#000000;stroke:#ffffff;stroke-width:2"
       d="m 416.60333,239.47955 c 9.625,6.125 20.875,7.125 33.625,2.875 l -3,36.25 c -12.625,1.875 -24.5,0.625 -35.5,-3.75 l 4.875,-35.375 z" />
    <path
       id="mdo"
       style="fill:#000000;stroke:#ffffff;stroke-width:2"
       d="m 411.72833,274.85455 c -6,-2.25 -11.75,-5.5 -17.25,-9.5 2.375,-11.875 5.75,-23 10.125,-33.74999 0.25,-0.75 0.625,-1.5 1,-2.25 3.375,4.25 7,7.625 11,10.12499 l -4.875,35.375 z" />
    <path
       id="mmi"
       style="fill:#000000;stroke:#ffffff;stroke-width:2"
       d="m 443.10333,330.22955 2.625,-34.25 c 5.5,-1.75 10.875,-4.5 16.25,-8.375 -2.375,14.25 -4.375,27.125 -6.125,38.75 -4.25,1.625 -8.625,2.875 -12.75,3.875 z" />
    <path
       id="mmm"
       style="fill:#000000;stroke:#ffffff;stroke-width:2"
       d="m 405.72833,328.35455 3.625,-37.25 c 12.25,7 24.375,8.625 36.375,4.875 l -2.625,34.25 c -13.125,2.875 -25.625,2.25 -37.375,-1.875 z" />
    <path
       id="mmo"
       style="fill:#000000;stroke:#ffffff;stroke-width:2"
       d="m 391.47833,286.97955 c 0.25,-3 0.625,-5.875 1,-8.875 5.625,5.5 11.25,9.75 16.875,13 l -3.625,37.25 c -6,-2.125 -11.75,-5.125 -17.25,-9 1.125,-11 2.125,-21.75 3,-32.375 z" />
    <path
       id="mp"
       style="fill:#000000;stroke:#ffffff;stroke-width:2"
       d="m 446.47833,399.85454 c -0.5,4.25 -0.75,7.875 -0.875,11 -23,1.375 -45.375,-1.125 -66.875,-7.625 0.25,-1.625 0.375,-3.375 0.5,-5.25 1.125,-10.5 2.875,-25.875 5.5,-46.49999 20.5,18.87499 42.75,21.12499 66.75,6.75 -1.875,13.99999 -3.5,27.87499 -5,41.62499 z" />
    <path
       id="pcid"
       style="fill:#000000;stroke:#ffffff;stroke-width:2"
       d="m 408.79279,592.22442 c -43.35695,-10.67187 -46.52388,-24.40581 -56.63764,-46.2623 32.45027,-21.81475 63.8426,-24.96677 68.2496,-23.03461 22.97564,-1.29741 -8.39148,23.58751 -11.61196,69.29691 z"
       inkscape:connector-curvature="0"
       sodipodi:nodetypes="cccc" />
    <path
       id="pcim"
       style="fill:#000000;stroke:#ffffff;stroke-width:2"
       d="m 348.97295,644.25805 c 7.31808,-26.0109 13.6345,-43.01007 26.02296,-64.96374 12.1064,6.69694 21.5484,10.96056 33.61522,13.46546 -2.62679,22.72781 1.37126,37.0286 6.19031,64.19697 -20.88721,2.60264 -46.86934,-4.89309 -65.82849,-12.69869 z"
       inkscape:connector-curvature="0"
       sodipodi:nodetypes="ccccc" />
    <path
       id="pcip"
       style="fill:#000000;stroke:#ffffff;stroke-width:2;stroke-linejoin:miter"
       d="m 348.73748,643.92503 c 21.88892,8.36051 35.01801,9.96536 66.55932,13.04807 6.94912,32.92831 34.8356,49.80813 19.4104,52.57409 -38.79388,10.17467 -83.89875,9.38221 -99.47771,3.67046 4.59471,-27.47134 10.29354,-45.05246 13.50799,-69.29262 z"
       inkscape:connector-curvature="0"
       sodipodi:nodetypes="ccccc" />
    <path
       id="pcmd"
       style="fill:#000000;stroke:#ffffff;stroke-width:2"
       d="m 305.28897,574.61746 c 15.40783,-12.36754 30.75987,-19.15336 45.76343,-28.4027 7.25232,12.29674 12.35992,25.54535 23.5708,32.70321 -12.32269,25.21458 -16.88811,39.88622 -25.84175,65.32979 -23.61888,-20.52745 -24.64274,-31.91012 -43.49248,-69.6303 z"
       inkscape:connector-curvature="0"
       sodipodi:nodetypes="ccccc" />
    <path
       id="pcmp"
       style="fill:#000000;stroke:#ffffff;stroke-width:2"
       d="m 299.82369,677.64908 c -15.25404,-25.90289 -17.51349,-44.03486 -25.25797,-86.57276 3.79762,-2.5685 27.24475,-14.55239 30.80646,-16.73502 11.9996,25.80989 19.92836,51.82846 43.47473,70.22973 -4.90003,26.98685 -9.3756,45.18167 -13.76302,68.68176 -13.0942,-7.5573 -26.78442,-21.21098 -35.2602,-35.60371 z"
       inkscape:connector-curvature="0"
       sodipodi:nodetypes="acccca" />
    <path
       id="pdi"
       style="fill:#000000;stroke:#ffffff;stroke-width:2"
       d="m 451.47958,491.44715 c -0.45662,-15.18255 -1.7878,-32.32111 -1.90848,-46.95047 20.33833,1.06384 42.15832,5.42822 56.82192,9.74451 0.39366,0.21989 -14.17041,42.03551 -14.65991,42.09095 -13.01784,-2.01266 -28.2064,-3.36713 -40.25353,-4.88499 z" />
    <path
       id="pdii"
       style="fill:#000000;stroke:#ffffff;stroke-width:2"
       d="m 491.70683,496.40506 c 4.75291,-13.79694 9.71253,-28.21004 14.59064,-41.96303 3.23934,0.84263 9.47599,3.37302 12.63202,4.49131 -4.39457,13.57736 -8.90502,27.80071 -13.11112,39.68441 -2.58428,-0.19685 -11.82713,-1.54044 -14.11154,-2.21269 z" />
    <path
       id="pdl"
       style="fill:#000000;stroke:#ffffff;stroke-width:2"
       d="m 297.22401,552.48672 c -3.83859,-19.03978 -11.38545,-36.82251 -17.33115,-54.41459 14.30365,-8.05421 29.76408,-16.16701 44.67224,-23.45661 6.47208,16.3189 12.04947,36.27166 18.40096,50.45931 -16.79301,10.29221 -30.0003,17.74158 -45.74205,27.41189 z"
       inkscape:connector-curvature="0"
       sodipodi:nodetypes="ccccc" />
    <path
       id="pdlo"
       style="fill:#000000;stroke:#ffffff;stroke-width:2"
       d="m 269.51179,568.2621 c -3.20663,-19.50443 -8.39663,-39.05378 -11.63393,-56.8585 5.61155,-4.00343 16.51683,-10.33367 22.5338,-13.70055 4.40403,16.95578 13.7649,37.20217 16.85432,54.97561 -6.773,3.76817 -21.47767,12.05441 -27.75419,15.58344 z"
       inkscape:connector-curvature="0"
       sodipodi:nodetypes="ccccc" />
    <path
       id="pdm"
       style="fill:#000000;stroke:#ffffff;stroke-width:2"
       d="m 383.95871,450.98289 c 22.14261,-3.80601 47.26403,-5.83125 66.13579,-6.31056 0.95556,16.52389 0.85814,32.86682 1.83371,47.00253 -6.54848,-0.31176 -14.82156,0.47091 -21.297,1.15245 -11.30806,1.42773 -21.36414,3.27899 -31.09656,6.00468 -5.29168,-16.87335 -13.2057,-32.89665 -15.57594,-47.8491 z" />
    <path
       id="pdr"
       style="fill:#000000;stroke:#ffffff;stroke-width:2"
       d="m 324.5651,474.61553 c 17.16968,-8.17517 40.04307,-17.44305 59.25981,-23.57606 4.25966,16.94064 9.89324,32.67075 15.48918,47.67208 -19.24524,7.28183 -39.69107,15.64987 -56.36962,26.26852 -6.33081,-11.21745 -13.2899,-37.92564 -18.37937,-50.36454 z"
       inkscape:connector-curvature="0"
       sodipodi:nodetypes="ccccc" />
    <path
       id="ptid"
       style="fill:#000000;stroke:#ffffff;stroke-width:2"
       d="m 508.94728,641.20507 c 15.17321,-8.25738 49.84288,-28.08744 60.00522,-42.84025 4.06334,3.81722 10.16444,9.97944 14.7617,14.39325 -11.98426,19.80246 -19.77704,34.2249 -47.32405,56.52247 -5.68478,-6.45976 -22.3392,-21.74656 -27.44287,-28.07547 z"
       inkscape:connector-curvature="0"
       sodipodi:nodetypes="ccccc" />
    <path
       id="ptip"
       style="fill:#000000;stroke:#ffffff;stroke-width:2"
       d="m 446.07347,653.84574 c 23.07966,-4.03154 38.66591,-4.28283 60.88868,-13.13695 13.52764,17.7109 24.84284,23.13484 29.428,28.57175 -15.07109,12.5425 -25.18423,21.73605 -39.40061,33.7425 -30.88821,-8.12925 -39.45593,-27.46161 -50.91607,-49.1773 z"
       inkscape:connector-curvature="0"
       sodipodi:nodetypes="ccccc" />
    <path
       id="ptmd"
       style="fill:#000000;stroke:#ffffff;stroke-width:2"
       d="m 494.30012,588.17413 c 21.90893,-2.4056 35.86195,-8.50469 50.14069,-15.14677 5.53531,8.57678 13.2317,17.42469 24.08493,25.74994 -12.67643,15.68412 -42.69323,33.75227 -60.57102,41.93149 -9.59231,-14.66001 -10.82,-35.17045 -13.6546,-52.53466 z"
       inkscape:connector-curvature="0"
       sodipodi:nodetypes="ccccc" />
    <path
       id="ptmp"
       style="fill:#000000;stroke:#ffffff;stroke-width:2"
       d="m 439.11833,589.25442 c 18.99764,-0.22344 41.52081,-1.87375 54.6855,-2.56914 2.81838,17.61013 5.22819,39.3333 14.15089,55.01607 -21.351,8.76595 -42.49651,9.31331 -62.0633,12.5514 -8.4632,-24.95307 -9.1668,-39.86715 -6.77309,-64.99833 z"
       inkscape:connector-curvature="0"
       sodipodi:nodetypes="ccccc" />
    <path
       id="ptod"
       style="fill:#000000;stroke:#ffffff;stroke-width:2"
       d="m 494.30012,587.18156 c -1.67085,-11.79768 -9.01965,-48.79188 -7.3286,-59.16111 8.47505,-3.01234 24.79514,0.51835 27.29675,4.30064 3.67772,5.56051 10.1824,12.35431 15.48694,13.39614 3.3429,7.89285 10.17693,21.88805 14.6856,27.31013 -14.82328,7.73874 -35.97791,13.74509 -50.14069,14.1542 z"
       inkscape:connector-curvature="0"
       sodipodi:nodetypes="ccsccc" />
    <path
       id="ptop"
       style="fill:#000000;stroke:#ffffff;stroke-width:2"
       d="m 438.88768,589.28681 c 5.89237,-37.14921 32.2612,-56.86492 47.8131,-60.99563 1.48167,15.86212 4.92062,46.98041 7.59934,58.89038 -16.80113,0.681 -39.9865,3.14625 -55.41244,2.10525 z"
       inkscape:connector-curvature="0"
       sodipodi:nodetypes="cccc" />
    <path
       id="rdd"
       style="fill:#000000;stroke:#ffffff;stroke-width:2"
       d="m 348.60334,258.85455 c -8.625,2.25 -17.375,1.25 -26.375,-2.875 -5.125,-2.375 -10.5,-6 -16,-10.625 5.125,-12.24999 13.125,-19.12499 24.25,-20.49999 16.375,-2.125 26.625,7.375 30.625,28.37499 -3.125,2.125 -6.375,3.625 -9.625,4.75 -1,0.375 -2,0.625 -2.875,0.875 z" />
    <path
       id="rdi"
       style="fill:#000000;stroke:#ffffff;stroke-width:2"
       d="m 348.60334,258.85455 c 0.875,-0.25 1.875,-0.5 2.875,-0.875 3.25,-1.125 6.5,-2.625 9.625,-4.75 1.125,5.75 1.75,12.25 2,19.75 0.125,5.875 0.25,11.875 0.5,17.75 -3.25,0.5 -6.625,0.875 -10,1.25 -0.75,0 -1.5,0.125 -2.25,0.125 l -2.75,-33.25 z" />
    <path
       id="rdm"
       style="fill:#000000;stroke:#ffffff;stroke-width:2"
       d="m 322.22834,255.97955 c 9,4.125 17.75,5.125 26.375,2.875 l 2.75,33.25 c -10.125,0.875 -20.875,0.75 -32.25,-0.25 l 3.125,-35.875 z" />
    <path
       id="rdo"
       style="fill:#000000;stroke:#ffffff;stroke-width:2"
       d="m 306.22834,245.35455 c 5.5,4.625 10.875,8.25 16,10.625 l -3.125,35.875 c -6.125,-0.5 -12.375,-1.25 -18.875,-2.25 -0.25,-18.875 1.75,-33.5 6,-44.25 z" />
    <path
       id="rmi"
       style="fill:#000000;stroke:#ffffff;stroke-width:2"
       d="m 355.10334,349.85455 -2.5,-34.25 c 4.25,-1.25 8.125,-3.125 11.75,-5.5 0.625,12.875 1.375,25.5 2.25,38.125 -3.875,0.625 -7.75,1.125 -11.5,1.625 z" />
    <path
       id="rmm"
       style="fill:#000000;stroke:#ffffff;stroke-width:2"
       d="m 318.60334,316.47955 c 12.75,2.75 24.125,2.375 34,-0.875 l 2.5,34.25 c -12.375,1.5 -24.5,2.375 -35.875,2.5 l -0.625,-35.875 z" />
    <path
       id="rmo"
       style="fill:#000000;stroke:#ffffff;stroke-width:2"
       d="m 318.60334,316.47955 0.625,35.875 c -5.25,0 -10.25,-0.125 -15.375,-0.375 -1.375,-14.25 -2.375,-27.875 -2.875,-40.75 6.125,2.25 12,4.125 17.625,5.25 z" />
    <path
       id="rp"
       style="fill:#000000;stroke:#ffffff;stroke-width:2"
       d="m 314.10334,432.22954 c -2.75,-17.25 -5.125,-33.875 -7,-49.875 29.375,13.25 49.625,10.25 61,-9.25 l 0.375,0.25 c 2.125,25.625 4.5,39.5 6.99999,41.875 -12.37499,10.5 -32.74999,16.25 -61.37499,17 z" />
    <path
       id="tdd"
       style="fill:#000000;stroke:#ffffff;stroke-width:2"
       d="m 627.22831,433.60454 c 7.625,-1.125 16.375,2 25.875,9.125 9.625,7.25 13.75,17 12.375,29.25 -3.75,-0.875 -7.375,-1.875 -11,-3.125 -13.125,-4.5 -25.5,-11.375 -37.12499,-20.5 -2.875,-2.25 -5.625,-4.625 -8.375,-7.125 4.375,-4.125 10.5,-6.625 18.24999,-7.625 z" />
    <path
       id="tdi"
       style="fill:#000000;stroke:#ffffff;stroke-width:2"
       d="m 654.47831,468.85454 c 3.625,1.25 7.25,2.25 11,3.125 -2.625,11 -6.375,21.12499 -11.5,30.24999 -5,9.25 -10.5,18.75 -16.625,28.625 -3.875,-1.75 -7.625,-3.75 -11.375,-5.75 l 28.5,-56.24999 z" />
    <path
       id="tdm"
       style="fill:#000000;stroke:#ffffff;stroke-width:2"
       d="m 617.35332,448.35454 c 11.62499,9.125 23.99999,16 37.12499,20.5 l -28.5,56.24999 c -14.74999,-8 -28.49999,-17.375 -41.24999,-28.125 l 32.625,-48.62499 z" />
    <path
       id="tdo"
       style="fill:#000000;stroke:#ffffff;stroke-width:2"
       d="m 585.60332,470.10454 c 7.375,-12.25 15.125,-21.875 23.375,-28.875 2.75,2.5 5.5,4.875 8.375,7.125 l -32.625,48.62499 c -3.375,-2.875 -6.75,-5.75 -10,-8.87499 3.625,-5.875 7.25,-12 10.875,-18 z" />
    <path
       id="tpi"
       style="fill:#000000;stroke:#ffffff;stroke-width:2"
       d="m 580.10332,577.97953 28.75,-38.125 c 6.25,1.875 13,3 20.37499,3.75 -2.5,4 -5.24999,8 -7.87499,12 -6.375,9.5 -13.125,19.75 -20.5,31 -7.375,-2.375 -14.375,-5.25 -20.75,-8.625 z" />
    <path
       id="tpm"
       style="fill:#000000;stroke:#ffffff;stroke-width:2"
       d="m 552.79183,556.11838 c 6.50572,-12.03145 15.90249,-25.65947 22.8212,-36.36112 8.67321,8.17361 16.02,14.92526 33.29057,20.15893 -9.77406,12.57599 -19.40117,24.8985 -28.46557,37.80121 -10.1462,-5.27415 -21.23891,-14.33553 -27.6462,-21.59902 z" />
    <path
       id="tpo"
       style="fill:#000000;stroke:#ffffff;stroke-width:2"
       d="m 542.75806,541.92204 c 9.3053,-11.13904 15.83943,-28.57099 22.92689,-37.95015 2.93338,5.04228 6.63018,11.40005 9.92808,15.78537 -7.43075,12.1985 -16.85785,25.03389 -22.82119,36.36112 -2.97246,-3.97664 -7.85781,-9.78555 -10.03378,-14.19634 z" />
  </g>
</svg>
