<?xml version='1.0' encoding='UTF-8' standalone='no'?>
<svg version="1.1" xmlns:dc="http://purl.org/dc/elements/1.1/" xmlns:rdf="http://www.w3.org/1999/02/22-rdf-syntax-ns#" xmlns:cc="http://creativecommons.org/ns#" width="480.93652" id="svg2" xmlns:svg="http://www.w3.org/2000/svg" height="549.10071" xmlns="http://www.w3.org/2000/svg" xmlns:sodipodi="http://sodipodi.sourceforge.net/DTD/sodipodi-0.dtd">
  <sodipodi:namedview fit-margin-bottom="0" bordercolor="#666666" id="base" fit-margin-top="0" showgrid="false" borderopacity="1.0" fit-margin-left="0" fit-margin-right="0" pagecolor="#ffffff"/>
  <g id="silhouette">
    <path id="path3373" style="fill:#333333;stroke:#ffffff;stroke-width:2" d="m 260.55373,71.507022 c 5.5,-0.75 11.125,-2.125 16.75,-4 -0.25,2.625 -0.75,5.25 -1.25,8.124999 -0.25,1.625 -0.5,3.25 -0.75,4.875 -5.375,3.875 -10.75,6.625 -16.25,8.374999 -12,3.75 -24.125,2.125 -36.375,-4.874999 -5.625,-3.25 -11.25,-7.5 -16.875,-12.999999 0.5,-4.25 1.25,-8.624999 2,-12.749999 5.5,4 11.25,7.249999 17.25,9.499999 11,4.375 22.875,5.625 35.5,3.75 z" />
    <path id="path3379" style="fill:#333333;stroke:#ffffff;stroke-width:2" d="m 201.80373,112.25702 c 5.5,3.875 11.25,6.875 17.25,9 11.75,4.125 24.25,4.75 37.375,1.875 4.125,-1 8.5,-2.25 12.75,-3.875 -1.125,7.75 -2.125,14.875 -3,21.5 -0.5,3.375 -1,6.875 -1.375,10.375 -24,14.37499 -46.25,12.12499 -66.75,-6.75 0,-0.75 0.125,-1.5 0.25,-2.25 1.25,-10.125 2.375,-20.125 3.5,-29.875 z" />
    <path id="path3399" style="fill:#333333;stroke:#ffffff;stroke-width:2" d="m 72.053744,169.63201 c -6.124999,4.5 -15.249999,7.75 -27.249998,9.75 -6.624999,1.125 -14.249998,1.875 -22.749998,2.25 -2,-5.125 -3.874999,-10.125 -5.874999,-15.25 6.749999,-1.25 13.374999,-2.75 19.749998,-4.625 9.249999,-2.875 18.124999,-6.37499 26.749998,-10.62499 3.375,-1.75 6.874999,-3.625 10.124999,-5.5 2.125,5.25 4.375,10.62499 6.625,15.99999 -1.625,3 -4.125,5.625 -7.375,8 z" />
    <path id="path3405" style="fill:#333333;stroke:#ffffff;stroke-width:2" d="m 83.303743,193.13201 c 2.625,-1.5 5.125,-3.125 7.625,-4.875 2.25,5.25 4.749999,10.5 7.124999,15.75 0.125,0 0.25,0.25 0.5,0.625 -1.625,14.75 -9.23477,24.00507 -26.109769,26.63007 -7.499999,1.125 -18.140227,0.61993 -28.765226,-0.63007 -1,-2.25 -2,-4.5 -3.125,-6.75 l -4.875,-10.5 c 8,-2.125 15.624999,-4.75 22.999998,-7.75 8.75,-3.625 16.874999,-7.75 24.624998,-12.5 z" />
    <path id="path3417" style="fill:#333333;stroke:#ffffff;stroke-width:2" d="m 71.553744,305.382 c -1,-3.625 -2.125,-7.125 -3.124999,-10.625 -2.25,-7.125 -4.625,-14.37499 -7.25,-21.49999 10.624999,-0.625 20.124998,-3 28.624998,-7.125 12.499997,-6 22.624997,-15.875 30.374997,-29.25 5.875,5.875 8.125,2 7.25,-11.75 28.625,-0.75 49,-6.5 61.37499,-17 0.75,0.625 1.375,0.375 2.125,-0.625 0,-0.25 0.375,-4.125 1.125,-11.375 21.5,6.5 43.875,9 66.875,7.625 -0.125,9.625 1.625,14.125 5.5,13.5 4,-0.625 9.375,-7.625 16.125,-20.875 18.125,8.875 36.24999,14.875 54.24999,18.25 3.75,0.625 7.625,1.25 11.5,1.625 -8.125,21.125 -13.125,34.875 -15.125,41.125 -2.25,7 -5.5,16.5 -10,28.37499 -4.25,11.75 -1,26 9.875,42.5 8.25,12.625 16.5,14.75 24.625,6.625 9.5,15.5 22,27.5 37.75,36 6.375,3.375 13.375,6.25 20.75,8.625 -7.5,11.375 -15.5,23.625 -24.125,36.87499 -17,26.25 -33.625,44.5 -49.75,54.875 -16,10.5 -26.875,19.75 -32.49999,28 -5.625,8.125 -8,23.25 -7.25,45.24999 l -187.24999,2.25 c -0.375,-10.125 -1.25,-20.12499 -2.375,-30.24999 -2.875,-22.875 -6.75,-45.375 -11.999998,-67.625 16.624998,15.625 22.499998,11.375 17.374998,-12.875 -5.125,-24.125 -6.5,-50.24999 -4.375,-77.99999 2.25,-27.875 -1,-47.25 -10,-58.25 -8.874997,-10.875 -18.999997,-9 -30.374996,5.625 z m 86.874996,-50.99999 c -2.375,1 -4.625,2.125 -6.75,3.375 -20.875,11.25 -30.375,25.74999 -28.625,43.37499 2,19.375 7.625,27.75 17.125,25 12.875,-6.875 24.875,-12.875 35.625,-17.75 16.99999,-7.875 31.37499,-13.25 43.12499,-16.25 2.625,-0.75 5,-1.25 7.375,-1.75 17.625,-3.375 32.75,-4.375 45.125,-3 1.375,0.125 2.75,0.375 4,0.625 13.25,2 21.75,1.375 25.875,-2.25 6.125,-5.49999 11.24999,-15.49999 15.49999,-29.99999 3.75,-13.5 -12.37499,-20.375 -48.62499,-20.5 -2.625,0 -5.5,0 -8.375,0.125 -20,0.375 -38.125,2 -54.25,4.875 -18,3.25 -33.74999,7.875 -47.12499,14.125 z M 288.17873,335.757 c -2.875,2.125 -5.75,4.75 -8.75,7.75 -19.375,20 -24.5,49.125 -15.375,87.37499 0.25,0.75 0.375,1.375 0.5,2 6.75,19.5 14.5,31.375 23.375,35.625 8.875,4.125 18.375,3.375 28.62499,-2.5 10.25,-6 18.75,-11.625 25.375,-16.875 5.375,-4.25 11.625,-11.75 18.875,-22.75 2.125,-3 4.125,-6.25 6.375,-9.75 10,-16.37499 10.875,-29.87499 2.625,-40.87499 -8.375,-10.875 -14.625,-18.5 -18.875,-22.75 -4.375,-4.625 -9.375,-9.5 -15,-14.625 -15.375,-14.125 -31.37499,-15 -47.74999,-2.625 z m -163.99999,46.875 c -1.125,7 -1.25,15.125 -0.5,24.37499 2.125,22.125 5.5,40.125 10,54 4.5,13.75 13.375,24.25 26.5,31.5 13,7.25 28.74999,11.25 46.99999,11.875 17.375,-0.25 33,-2.875 46.75,-7.625 13.75,-4.625 16.5,-12.625 8.5,-23.875 -8.5,-11.75 -14.5,-24.75 -18.125,-39.25 -2.625,-10.625 -3.875,-22 -3.875,-33.99999 0,-11.375 1.5,-21.875 4.375,-31.375 4.625,-14.625 12.5,-27.25 23.75,-38 18.75,-17.625 13.625,-25 -15.25,-21.75 -25.875,2.875 -48.25,8.625 -67.12499,17.125 -2.125,1 -4.125,2 -6.125,3 -20,10.25 -35,20.25 -44.75,30.25 -5.75,5.75 -9.5,13.75 -11.125,23.75 z" />
    <path id="path3453" style="fill:#333333;stroke:#ffffff;stroke-width:2" d="m 439.30371,318.007 c 3.75,2 7.5,4 11.375,5.75 -2.625,4.25 -5.25,8.5 -8.125,12.75 -7.37499,-0.75 -14.12499,-1.875 -20.37499,-3.75 -20.625,-5.875 -34.875,-18.125 -43,-36.625 3,-5 5.875,-10 8.875,-15.12499 3.25,3.12499 6.625,5.99999 10,8.87499 12.75,10.75 26.5,20.125 41.24999,28.125 z" />
    <path id="path3455" style="fill:#333333;stroke:#ffffff;stroke-width:2" d="m 120.42874,175.25701 c -1.25,-10.375 -2.375,-20.49999 -3.25,-30.37499 5.125,0.25 10.125,0.375 15.375,0.375 11.375,-0.125 23.5,-1 35.875,-2.5 3.75,-0.5 7.625,-1 11.5,-1.625 0.5,8.25 1.125,16.37499 1.75,24.49999 0,0.125 -0.125,0.25 -0.25,0.375 -11.375,19.5 -31.625,22.5 -61,9.25 z" />
    <path id="path3463" style="fill:#333333;stroke:#ffffff;stroke-width:2" d="m 362.05372,171.88201 c -5.125,1.5 -10,2.625 -14.625,3.375 -23.5,4 -40.24999,-2 -50.24999,-18 1.875,-5.24999 3.75,-10.49999 5.5,-15.87499 5.25,2.125 10.49999,4 15.74999,5.625 0.375,0.125 0.875,0.25 1.375,0.375 11,3.25 22,5.5 33.125,6.875 4.625,0.5 9.25,0.75 14,1 -1.5,5.49999 -3.125,10.99999 -4.875,16.62499 z" />
    <path id="path3473" style="fill:#333333;stroke:#ffffff;stroke-width:2" d="m 327.42872,113.63202 c -4.875,-3.375 -9,-8.125 -12.375,-14.5 1.25,-4 2.5,-8 3.75,-11.874999 4.375,5.124999 9.125,9.124999 14,11.999999 0.625,0.25 1.125,0.5 1.625,0.875 9.25,4.875 19.375,6 30.25,3.25 0.625,-0.25 1.25,-0.375 1.875,-0.5 4.25,-1.25 8.625,-3.125 13.125,-5.5 -0.625,4.25 -1.5,8.75 -2.375,13.5 -5.625,2.625 -10.875,4.625 -15.875,6.125 -12.625,3.375 -23.25,2.75 -31.75,-2 -0.75,-0.375 -1.5,-0.875 -2.25,-1.375 z" />
    <path id="path3483" style="fill:#333333;stroke:#ffffff;stroke-width:2" d="m 114.30374,104.13202 c -0.375,-7.5 -0.625,-14.625 -0.75,-21.624999 6.5,1 12.75,1.75 18.875,2.25 11.375,1 22.125,1.125 32.25,0.25 0.75,0 1.5,-0.125 2.25,-0.125 3.375,-0.375 6.75,-0.75 10,-1.25 0.25,6.499999 0.5,12.874999 0.75,19.374999 -3.625,2.375 -7.5,4.25 -11.75,5.5 -9.875,3.25 -21.25,3.625 -34,0.875 -5.625,-1.125 -11.5,-3 -17.625,-5.25 z" />
  </g>
  <path id="idd" style="fill:#000000;stroke:#ffffff;stroke-width:2" d="m 369.55372,66.257022 c -0.375,0 -0.75,0.125 -1,0.125 -10.625,2 -19,1.375 -25.375,-2 -0.125,0 -0.25,-0.125 -0.375,-0.125 -4.625,-2.499999 -8,-6.499999 -10.375,-11.874999 6.5,-9.249999 15.5,-12.999999 27.375,-11.249999 14.375,2.25 22,9.249999 23,21.374998 -4.625,1.625 -9.125,2.875 -13.25,3.75 z" />
  <path id="idi" style="fill:#000000;stroke:#ffffff;stroke-width:2" d="m 366.55372,102.88202 c -0.625,0.125 -1.25,0.25 -1.875,0.5 l 4.875,-37.124998 c 4.125,-0.875 8.625,-2.125 13.25,-3.75 0.125,0.875 0.25,1.875 0.125,2.875 0,8.25 -1,18.874999 -3.25,31.999998 -4.5,2.375 -8.875,4.25 -13.125,5.5 z" />
  <path id="idm" style="fill:#000000;stroke:#ffffff;stroke-width:2" d="m 368.55372,66.382022 c 0.25,0 0.625,-0.125 1,-0.125 l -4.875,37.124998 c -10.875,2.75 -21,1.625 -30.25,-3.25 -0.5,-0.375 -1,-0.625 -1.625,-0.875 l 10,-34.999998 c 0.125,0 0.25,0.125 0.375,0.125 6.375,3.375 14.75,4 25.375,2 z" />
  <path id="ido" style="fill:#000000;stroke:#ffffff;stroke-width:2" d="m 332.42872,52.382023 c 2.375,5.375 5.75,9.375 10.375,11.874999 l -10,34.999998 c -4.875,-2.875 -9.625,-6.875 -14,-11.999999 2.75,-8.75 5.625,-16.999999 8.375,-24.499999 1.5,-3.999999 3.25,-7.499999 5.25,-10.374999 z" />
  <path id="imi" style="fill:#000000;stroke:#ffffff;stroke-width:2" d="m 361.42872,117.00702 c 5,-1.5 10.25,-3.5 15.875,-6.125 -1,5.25 -2.125,10.625 -3.5,16.5 -2,9.375 -4.375,18.625 -6.875,27.875 -4.75,-0.25 -9.375,-0.5 -14,-1 l 8.5,-37.25 z" />
  <path id="imm" style="fill:#000000;stroke:#ffffff;stroke-width:2" d="m 329.67872,115.00702 c 8.5,4.75 19.125,5.375 31.75,2 l -8.5,37.25 c -11.125,-1.375 -22.125,-3.625 -33.125,-6.875 -0.5,-0.125 -1,-0.25 -1.375,-0.375 l 9,-33.375 c 0.75,0.5 1.5,1 2.25,1.375 z" />
  <path id="imo" style="fill:#000000;stroke:#ffffff;stroke-width:2" d="m 315.05372,99.13202 c 3.375,6.375 7.5,11.125 12.375,14.5 l -9,33.375 c -5.25,-1.625 -10.49999,-3.5 -15.74999,-5.625 2.125,-6.5 4.125,-13.125 6,-19.875 2.125,-7.875 4.24999,-15.25 6.37499,-22.375 z" />
  <path id="ip" style="fill:#000000;stroke:#ffffff;stroke-width:2" d="m 280.55373,196.38201 c 1.625,-3.25 3.25,-6.75 5,-10.625 4.25,-9.375 8.125,-18.875 11.625,-28.5 10,16 26.74999,22 50.24999,18 l -12.625,39.375 c -18,-3.375 -36.12499,-9.375 -54.24999,-18.25 z" />
  <path id="ipi" style="fill:#000000;stroke:#ffffff;stroke-width:2" d="m 347.42872,175.25701 c 4.625,-0.75 9.5,-1.875 14.625,-3.375 -3.75,12 -7.875,23.875 -12.375,35.75 -1.25,3 -2.375,5.875 -3.375,8.625 -3.875,-0.375 -7.75,-1 -11.5,-1.625 l 12.625,-39.375 z" />
  <path id="ldd" style="fill:#000000;stroke:#ffffff;stroke-width:2" d="m 23.178748,125.50702 c -6.374999,0.5 -13.3749988,0.25 -20.9999982,-0.875 -1.1249999,-9.125 0.875,-16.5 5.9999995,-22.125 7.7499997,-8.625 17.3749987,-12 28.6249977,-9.875 6.625,1.125 12.999999,6.25 18.874999,15.25 -2.375,3.625 -5.375,6.625 -8.75,9.25 -6.249999,4.625 -14.249999,7.5 -23.749998,8.375 z" />
  <path id="ldi" style="fill:#000000;stroke:#ffffff;stroke-width:2" d="m 46.928746,117.13202 c 3.375,-2.625 6.375,-5.625 8.75,-9.25 4.124999,6 7.999999,14 11.749999,23.75 1.749999,4.625 3.624999,9.25 5.374999,14 -3.25,1.875 -6.749999,3.75 -10.124999,5.5 l -15.749999,-34 z" />
  <path id="ldm" style="fill:#000000;stroke:#ffffff;stroke-width:2" d="m 62.678745,151.13202 c -8.624999,4.25 -17.499999,7.74999 -26.749998,10.62499 L 23.178748,125.50702 c 9.499999,-0.875 17.499999,-3.75 23.749998,-8.375 l 15.749999,34 z" />
  <path id="ldo" style="fill:#000000;stroke:#ffffff;stroke-width:2" d="m 2.1787498,124.63202 c 7.6249994,1.125 14.6249992,1.375 20.9999982,0.875 l 12.749999,36.24999 c -6.374999,1.875 -12.999999,3.375 -19.749998,4.625 -0.375,-1.125 -0.875,-2.375 -1.25,-3.625 -2.75,-7.37499 -5.4999998,-14.62499 -8.3749995,-21.87499 -2.2499998,-5.875 -3.7499997,-11.25 -4.3749997,-16.25 z" />
  <path id="lmi" style="fill:#000000;stroke:#ffffff;stroke-width:2" d="m 90.928743,188.25701 c -2.5,1.75 -5,3.375 -7.625,4.875 l -11.249999,-23.5 c 3.25,-2.375 5.75,-5 7.375,-8 3.624999,8.875 7.499999,17.75 11.499999,26.625 z" />
  <path id="lmm" style="fill:#000000;stroke:#ffffff;stroke-width:2" d="m 46.053746,178.48915 c 11.999999,-2 19.874999,-4.35714 25.999998,-8.85714 l 11.249999,23.5 c -7.749999,4.75 -15.874998,8.875 -24.624998,12.5 z" />
  <path id="lmo" style="fill:#000000;stroke:#ffffff;stroke-width:2" d="m 22.053748,181.63201 c 8.5,-0.375 17.553574,-1.83928 24.178573,-2.96428 l 12.446424,26.96428 c -7.374999,3 -14.999998,5.625 -22.999998,7.75 -4.874999,-10.625 -9.374999,-21.125 -13.624999,-31.75 z" />
  <path id="lp" style="fill:#000000;stroke:#ffffff;stroke-width:2" d="m 120.17874,236.88201 c -7.75,13.375 -18.94642,24.14286 -31.446422,30.14286 L 73.964457,230.2213 c 16.369922,-5.15039 20.94398,-10.83929 24.589285,-25.58929 1.25,2.25 6.374998,10.125 15.249998,23.75 2.375,3.75 4.5,6.625 6.375,8.5 z" />
  <path id="lpo" style="fill:#000000;stroke:#ffffff;stroke-width:2" d="m 43.678747,230.63201 c 10.624999,1.25 22.607148,1.07142 30.107147,-0.0536 l 14.767849,36.625 c -8.499999,4.125 -16.749999,5.42858 -27.374998,6.05358 -5.124999,-14.375 -10.999999,-28.625 -17.499998,-42.625 z" />
  <path id="mdd" style="fill:#000000;stroke:#ffffff;stroke-width:2" d="m 263.55373,35.257025 c -12.75,4.249999 -24,3.249999 -33.625,-2.875 -4,-2.5 -7.625,-5.875 -11,-10.124999 7,-15.3749991 16.875,-22.12499851 29.75,-19.9999987 13.5,2.2499998 22.5,8.6249997 27,18.9999987 1,2.125 1.75,4.624999 2.25,7.374999 -5,2.875 -9.75,5 -14.375,6.625 z" />
  <path id="mdi" style="fill:#000000;stroke:#ffffff;stroke-width:2" d="m 260.55373,71.507022 3,-36.249997 c 4.625,-1.625 9.375,-3.75 14.375,-6.625 1.875,9.249999 1.75,22.249998 -0.625,38.874997 -5.625,1.875 -11.25,3.25 -16.75,4 z" />
  <path id="mdm" style="fill:#000000;stroke:#ffffff;stroke-width:2" d="m 229.92873,32.382025 c 9.625,6.124999 20.875,7.124999 33.625,2.875 l -3,36.249997 c -12.625,1.875 -24.5,0.625 -35.5,-3.75 l 4.875,-35.374997 z" />
  <path id="mdo" style="fill:#000000;stroke:#ffffff;stroke-width:2" d="m 225.05373,67.757022 c -6,-2.25 -11.75,-5.499999 -17.25,-9.499999 2.375,-11.874999 5.75,-22.999998 10.125,-33.749997 0.25,-0.75 0.625,-1.5 1,-2.25 3.375,4.249999 7,7.624999 11,10.124999 l -4.875,35.374997 z" />
  <path id="mmi" style="fill:#000000;stroke:#ffffff;stroke-width:2" d="m 256.42873,123.13202 2.625,-34.25 c 5.5,-1.749999 10.875,-4.499999 16.25,-8.374999 -2.375,14.249999 -4.375,27.124999 -6.125,38.749999 -4.25,1.625 -8.625,2.875 -12.75,3.875 z" />
  <path id="mmm" style="fill:#000000;stroke:#ffffff;stroke-width:2" d="m 219.05373,121.25702 3.625,-37.249999 c 12.25,6.999999 24.375,8.624999 36.375,4.874999 l -2.625,34.25 c -13.125,2.875 -25.625,2.25 -37.375,-1.875 z" />
  <path id="mmo" style="fill:#000000;stroke:#ffffff;stroke-width:2" d="m 204.80373,79.882021 c 0.25,-3 0.625,-5.874999 1,-8.874999 5.625,5.499999 11.25,9.749999 16.875,12.999999 l -3.625,37.249999 c -6,-2.125 -11.75,-5.125 -17.25,-9 1.125,-11 2.125,-21.75 3,-32.374999 z" />
  <path id="mp" style="fill:#000000;stroke:#ffffff;stroke-width:2" d="m 259.80373,192.75701 c -0.5,4.25 -0.75,7.875 -0.875,11 -23,1.375 -45.375,-1.125 -66.875,-7.625 0.25,-1.625 0.375,-3.375 0.5,-5.25 1.125,-10.5 2.875,-25.875 5.5,-46.49999 20.5,18.87499 42.75,21.12499 66.75,6.75 -1.875,13.99999 -3.5,27.87499 -5,41.62499 z" />
  <path id="pcid" style="fill:#000000;stroke:#ffffff;stroke-width:2" d="m 186.17874,325.632 c 18.87499,-8.5 41.24999,-14.25 67.12499,-17.125 28.875,-3.25 34,4.125 15.25,21.75 -11.25,10.75 -19.125,23.375 -23.75,38 -14.875,0.625 -27.625,-3 -38,-10.875 -8.875,-6.625 -15.75,-17.25 -20.62499,-31.75 z" />
  <path id="pcim" style="fill:#000000;stroke:#ffffff;stroke-width:2" d="m 240.42873,399.632 c 0,11.99999 1.25,23.37499 3.875,33.99999 -24.5,2.75 -46.375,0.375 -65.74999,-7.125 -4.25,-27.24999 5.125,-50.24999 28.24999,-69.12499 10.375,7.875 23.125,11.5 38,10.875 -2.875,9.5 -4.375,20 -4.375,31.375 z" />
  <path id="pcip" style="fill:#000000;stroke:#ffffff;stroke-width:2" d="m 178.92874,428.63199 c -0.125,-0.75 -0.25,-1.5 -0.375,-2.125 19.37499,7.5 41.24999,9.875 65.74999,7.125 3.625,14.5 9.625,27.5 18.125,39.25 8,11.25 5.25,19.25 -8.5,23.875 -13.75,4.75 -29.375,7.375 -46.75,7.625 -13.75,-22.875 -23.12499,-48.125 -28.24999,-75.75 z" />
  <path id="pcod" style="fill:#000000;stroke:#ffffff;stroke-width:2" d="m 124.17874,382.632 c 1.625,-10 5.375,-18 11.125,-23.75 9.75,-10 24.75,-20 44.75,-30.25 2,-1 4,-2 6.125,-3 4.87499,14.5 11.74999,25.125 20.62499,31.75 -23.12499,18.875 -32.49999,41.875 -28.24999,69.12499 -21.25,-8.375 -39.375,-22.99999 -54.375,-43.87499 z" />
  <path id="pcop" style="fill:#000000;stroke:#ffffff;stroke-width:2" d="m 123.67874,407.00699 c -0.75,-9.24999 -0.625,-17.37499 0.5,-24.37499 15,20.875 33.125,35.49999 54.375,43.87499 0.125,0.625 0.25,1.375 0.375,2.125 5.125,27.625 14.49999,52.875 28.24999,75.75 -18.25,-0.625 -33.99999,-4.625 -46.99999,-11.875 -13.125,-7.25 -22,-17.75 -26.5,-31.5 -4.5,-13.875 -7.875,-31.875 -10,-54 z" />
  <path id="pdi" style="fill:#000000;stroke:#ffffff;stroke-width:2" d="m 275.42873,288.007 c -1.25,-0.25 -2.625,-0.5 -4,-0.625 l -3.25,-52.12499 c 36.25,0.125 52.37499,7 48.62499,20.5 -4.25,14.5 -9.37499,24.5 -15.49999,29.99999 -4.125,3.625 -12.625,4.25 -25.875,2.25 z" />
  <path id="pdl" style="fill:#000000;stroke:#ffffff;stroke-width:2" d="m 175.80374,308.382 c -10.75,4.875 -22.75,10.875 -35.625,17.75 -9.5,2.75 -15.125,-5.625 -17.125,-25 -1.75,-17.625 7.45414,-33.04849 30.85451,-44.80357 z" />
  <path id="pdm" style="fill:#000000;stroke:#ffffff;stroke-width:2" d="m 259.80373,235.38201 c 2.875,-0.125 5.75,-0.125 8.375,-0.125 l 3.25,52.12499 c -12.375,-1.375 -27.5,-0.375 -45.125,3 -2.375,0.5 -4.75,1 -7.375,1.75 l -13.375,-51.87499 c 16.125,-2.875 34.25,-4.5 54.25,-4.875 z" />
  <path id="pdr" style="fill:#000000;stroke:#ffffff;stroke-width:2" d="m 153.64303,256.68558 c 2.125,-1.25 2.41071,-1.30357 4.78571,-2.30357 13.375,-6.25 29.12499,-10.875 47.12499,-14.125 l 13.375,51.87499 c -11.75,3 -26.125,8.375 -43.12499,16.25 z" />
  <path id="po" style="fill:#000000;stroke:#ffffff;stroke-width:2" d="m 98.928742,448.88199 c -1.375,-5.75 -2.75,-11.375 -4.25,-17.125 -5.124999,-19.5 -8.624999,-39.37499 -10.624999,-59.62499 -2.25,-22.75 -6.374999,-45 -12.499999,-66.75 11.374999,-14.625 21.499999,-16.5 30.374996,-5.625 9,11 12.25,30.375 10,58.25 -2.125,27.75 -0.75,53.87499 4.375,77.99999 5.125,24.25 -0.75,28.5 -17.374998,12.875 z" />
  <path id="ptid" style="fill:#000000;stroke:#ffffff;stroke-width:2" d="m 350.92872,353.007 c 4.25,4.25 10.5,11.875 18.875,22.75 8.25,11 7.375,24.5 -2.625,40.87499 -2.25,3.5 -4.25,6.75 -6.375,9.75 l -34.375,-39.87499 c 7.75,-9.625 16,-20.75 24.5,-33.5 z" />
  <path id="ptip" style="fill:#000000;stroke:#ffffff;stroke-width:2" d="m 360.80372,426.38199 c -7.25,11 -13.5,18.5 -18.875,22.75 -6.625,5.25 -15.125,10.875 -25.375,16.875 -10.24999,5.875 -19.74999,6.625 -28.62499,2.5 -8.875,-4.25 -16.625,-16.125 -23.375,-35.625 17.5,-1.5 38.125,-17 61.87499,-46.37499 l 34.375,39.87499 z" />
  <path id="ptod" style="fill:#000000;stroke:#ffffff;stroke-width:2" d="m 326.42872,386.507 -38.24999,-50.75 c 16.375,-12.375 32.37499,-11.5 47.74999,2.625 5.625,5.125 10.625,10 15,14.625 -8.5,12.75 -16.75,23.875 -24.5,33.5 z" />
  <path id="ptop" style="fill:#000000;stroke:#ffffff;stroke-width:2" d="m 288.17873,335.757 38.24999,50.75 c -23.74999,29.37499 -44.37499,44.87499 -61.87499,46.37499 -0.125,-0.625 -0.25,-1.25 -0.5,-2 -9.125,-38.24999 -4,-67.37499 15.375,-87.37499 3,-3 5.875,-5.625 8.75,-7.75 z" />
  <path id="rdd" style="fill:#000000;stroke:#ffffff;stroke-width:2" d="m 161.92874,51.757023 c -8.625,2.25 -17.375,1.25 -26.375,-2.874999 -5.125,-2.375 -10.5,-6 -16,-10.625 5.125,-12.249999 13.125,-19.124998 24.25,-20.499998 16.375,-2.125 26.625,7.374999 30.625,28.374998 -3.125,2.125 -6.375,3.625 -9.625,4.749999 -1,0.375 -2,0.625 -2.875,0.875 z" />
  <path id="rdi" style="fill:#000000;stroke:#ffffff;stroke-width:2" d="m 161.92874,51.757023 c 0.875,-0.25 1.875,-0.5 2.875,-0.875 3.25,-1.124999 6.5,-2.624999 9.625,-4.749999 1.125,5.749999 1.75,12.249999 2,19.749998 0.125,5.875 0.25,11.874999 0.5,17.749999 -3.25,0.5 -6.625,0.875 -10,1.25 -0.75,0 -1.5,0.125 -2.25,0.125 l -2.75,-33.249998 z" />
  <path id="rdm" style="fill:#000000;stroke:#ffffff;stroke-width:2" d="m 135.55374,48.882024 c 9,4.124999 17.75,5.124999 26.375,2.874999 l 2.75,33.249998 c -10.125,0.875 -20.875,0.75 -32.25,-0.25 l 3.125,-35.874997 z" />
  <path id="rdo" style="fill:#000000;stroke:#ffffff;stroke-width:2" d="m 119.55374,38.257024 c 5.5,4.625 10.875,8.25 16,10.625 l -3.125,35.874997 c -6.125,-0.5 -12.375,-1.25 -18.875,-2.25 -0.25,-18.874999 1.75,-33.499997 6,-44.249997 z" />
  <path id="rmi" style="fill:#000000;stroke:#ffffff;stroke-width:2" d="m 168.42874,142.75702 -2.5,-34.25 c 4.25,-1.25 8.125,-3.125 11.75,-5.5 0.625,12.875 1.375,25.5 2.25,38.125 -3.875,0.625 -7.75,1.125 -11.5,1.625 z" />
  <path id="rmm" style="fill:#000000;stroke:#ffffff;stroke-width:2" d="m 131.92874,109.38202 c 12.75,2.75 24.125,2.375 34,-0.875 l 2.5,34.25 c -12.375,1.5 -24.5,2.375 -35.875,2.5 l -0.625,-35.875 z" />
  <path id="rmo" style="fill:#000000;stroke:#ffffff;stroke-width:2" d="m 131.92874,109.38202 0.625,35.875 c -5.25,0 -10.25,-0.125 -15.375,-0.375 -1.375,-14.25 -2.375,-27.875 -2.875,-40.75 6.125,2.25 12,4.125 17.625,5.25 z" />
  <path id="rp" style="fill:#000000;stroke:#ffffff;stroke-width:2" d="m 127.42874,225.13201 c -2.75,-17.25 -5.125,-33.875 -7,-49.875 29.375,13.25 49.625,10.25 61,-9.25 l 0.375,0.25 c 2.125,25.625 4.5,39.5 6.99999,41.875 -12.37499,10.5 -32.74999,16.25 -61.37499,17 z" />
  <path id="tdd" style="fill:#000000;stroke:#ffffff;stroke-width:2" d="m 440.55371,226.50701 c 7.625,-1.125 16.375,2 25.875,9.125 9.625,7.25 13.75,17 12.375,29.25 -3.75,-0.875 -7.375,-1.875 -11,-3.125 -13.125,-4.5 -25.5,-11.375 -37.12499,-20.5 -2.875,-2.25 -5.625,-4.625 -8.375,-7.125 4.375,-4.125 10.5,-6.625 18.24999,-7.625 z" />
  <path id="tdi" style="fill:#000000;stroke:#ffffff;stroke-width:2" d="m 467.80371,261.75701 c 3.625,1.25 7.25,2.25 11,3.125 -2.625,11 -6.375,21.12499 -11.5,30.24999 -5,9.25 -10.5,18.75 -16.625,28.625 -3.875,-1.75 -7.625,-3.75 -11.375,-5.75 l 28.5,-56.24999 z" />
  <path id="tdm" style="fill:#000000;stroke:#ffffff;stroke-width:2" d="m 430.67872,241.25701 c 11.62499,9.125 23.99999,16 37.12499,20.5 l -28.5,56.24999 c -14.74999,-8 -28.49999,-17.375 -41.24999,-28.125 l 32.625,-48.62499 z" />
  <path id="tdo" style="fill:#000000;stroke:#ffffff;stroke-width:2" d="m 398.92872,263.00701 c 7.375,-12.25 15.125,-21.875 23.375,-28.875 2.75,2.5 5.5,4.875 8.375,7.125 l -32.625,48.62499 c -3.375,-2.875 -6.75,-5.75 -10,-8.87499 3.625,-5.875 7.25,-12 10.875,-18 z" />
  <path id="tmi" style="fill:#000000;stroke:#ffffff;stroke-width:2" d="m 393.42872,370.882 28.75,-38.125 c 6.25,1.875 13,3 20.37499,3.75 -2.5,4 -5.24999,8 -7.87499,12 -6.375,9.5 -13.125,19.75 -20.5,31 -7.375,-2.375 -14.375,-5.25 -20.75,-8.625 z" />
  <path id="tmo" style="fill:#000000;stroke:#ffffff;stroke-width:2" d="m 422.17872,332.757 -28.75,38.125 c -15.75,-8.5 -28.25,-20.5 -37.75,-36 2.625,-2.625 5.25,-6.375 7.875,-11 5,-9.125 10.25,-18.375 15.625,-27.75 8.125,18.5 22.375,30.75 43,36.625 z" />
</svg>
